<?xml version="1.0" encoding="UTF-8"?>
<svg version="1.1" xmlns="http://www.w3.org/2000/svg" width="1024" height="1024">
<path d="M0 0 C337.92 0 675.84 0 1024 0 C1024 337.92 1024 675.84 1024 1024 C686.08 1024 348.16 1024 0 1024 C0 686.08 0 348.16 0 0 Z " fill="#033D3F" transform="translate(0,0)"/>
<path d="M0 0 C1.61771643 -0.00417769 3.23542993 -0.0096576 4.85313803 -0.01631981 C9.2787836 -0.03073587 13.70424232 -0.02654175 18.12989795 -0.019153 C22.91049933 -0.01441414 27.6910607 -0.02693749 32.47164917 -0.03717041 C41.82932985 -0.05434933 51.18694335 -0.05520034 60.54463571 -0.04995751 C68.15157561 -0.0459131 75.75849569 -0.04736258 83.36543465 -0.05270576 C84.4488454 -0.05345419 85.53225616 -0.05420261 86.64849754 -0.05497371 C88.84956316 -0.05650521 91.05062878 -0.05804356 93.25169439 -0.05958868 C113.88342995 -0.07331029 134.51512758 -0.06787827 155.14686228 -0.05640347 C174.01462376 -0.04647016 192.88228719 -0.05941407 211.75003355 -0.08333766 C231.13351616 -0.10772963 250.51695311 -0.11733636 269.90045077 -0.11068493 C280.77881603 -0.1071931 291.65710587 -0.1094225 302.53545952 -0.12693596 C311.79528812 -0.14165908 321.05498818 -0.14229181 330.31481426 -0.12486505 C335.0372234 -0.11635388 339.75940293 -0.11420844 344.48180008 -0.1295166 C348.80903252 -0.14336993 353.13583879 -0.1385923 357.46304662 -0.11927737 C359.02417008 -0.11551905 360.58532773 -0.11843447 362.14642071 -0.12888902 C376.03668658 -0.21525964 387.5500168 2.49254934 397.92713928 12.20018005 C407.17701374 22.08797689 410.30404859 33.40846143 410.2497015 46.64370251 C410.25350717 47.65530922 410.25731284 48.66691594 410.26123384 49.7091774 C410.27154861 53.1024044 410.26764359 56.49546407 410.26379395 59.88870239 C410.26824639 62.34472451 410.27356046 64.80074519 410.27966267 67.25676376 C410.29088823 72.59855998 410.295876 77.94030804 410.29534149 83.28211212 C410.29454753 91.22583621 410.30510562 99.16951727 410.31775706 107.11322985 C410.34248441 122.9538727 410.35127838 138.79450507 410.35629355 154.63516457 C410.35655472 155.45531215 410.3568159 156.27545973 410.35708499 157.12046027 C410.35734526 157.94226715 410.35760554 158.76407402 410.3578737 159.61078413 C410.36095693 168.72084882 410.36746198 177.8309106 410.37408638 186.94097328 C410.39373256 214.45978879 410.41013805 241.97860116 410.41296291 269.49742413 C410.41305697 270.37745287 410.41315104 271.25748162 410.41324795 272.1641779 C410.41362642 275.73050174 410.41399042 279.29682557 410.41435093 282.8631494 C410.41462264 285.54735168 410.41489932 288.23155395 410.41517639 290.91575623 C410.41526441 291.80271951 410.41535244 292.6896828 410.41544313 293.60352376 C410.41834849 321.47162984 410.4404446 349.33966656 410.47669983 377.20774841 C410.51743556 408.52058906 410.54112155 439.83338243 410.54142243 471.14625102 C410.54151925 474.48593669 410.54168597 477.82562234 410.54190254 481.165308 C410.54194666 481.98761718 410.54199077 482.80992637 410.54203622 483.65715401 C410.54315555 496.88384336 410.56055666 510.11046314 410.58372186 523.3371301 C410.60657656 536.63326831 410.61078174 549.92931265 410.59617256 563.22546329 C410.58802797 571.12132694 410.59368753 579.01689466 410.61935341 586.91272235 C410.63698324 592.81318355 410.62838781 598.71341957 410.60970832 604.61388383 C410.60621067 606.99744349 410.61113487 609.38103381 410.62541275 611.76455327 C410.72439166 629.42872965 409.15207319 642.58843261 396.98963928 656.38768005 C389.42508867 663.82589162 378.0840407 668.50385904 367.56603432 668.52469444 C366.9080018 668.52734627 366.24996929 668.5299981 365.57199639 668.53273028 C363.35146541 668.54043267 361.13098963 668.54098281 358.91044617 668.5415802 C357.30844878 668.54559424 355.7064524 668.55003236 354.10445726 668.55485976 C349.68972023 668.56683823 345.27499414 668.57247669 340.86024404 668.57704091 C336.10335016 668.58299238 331.34646939 668.59460356 326.58958435 668.60533142 C315.09345584 668.62986893 303.59732297 668.64448613 292.10117632 668.65739149 C288.85398506 668.66110294 285.60679424 668.66507623 282.3596034 668.66914415 C262.19565538 668.69438415 242.03170669 668.7164377 221.86774635 668.7288723 C217.19564944 668.73180202 212.52355255 668.73476367 207.85145569 668.73777771 C206.69022247 668.73852376 205.52898925 668.73926981 204.33256714 668.74003847 C185.53036844 668.75268618 166.72826444 668.78590022 147.92610998 668.82757954 C128.62194976 668.8700207 109.31783798 668.89357001 90.01363122 668.89879286 C79.17530426 668.90220489 68.33712517 668.91393528 57.49884415 668.9468956 C48.2659828 668.97492744 39.03329962 668.98588174 29.80039902 668.97470014 C25.09190569 668.9695212 20.38378529 668.97235042 15.67534637 668.99716568 C11.35815676 669.01972821 7.04160644 669.01886433 2.72440509 668.99996181 C1.16908324 668.99717154 -0.38628261 669.00270585 -1.94153397 669.01777475 C-15.33351336 669.13951409 -26.82027231 666.47064134 -37.01036072 657.38768005 C-37.60204041 656.91072693 -38.19372009 656.4337738 -38.80332947 655.94236755 C-46.09956542 649.53198807 -50.78910055 640.79927413 -51.65439153 631.15016592 C-51.99110463 624.72576825 -51.9253263 618.30316174 -51.87232971 611.87246704 C-51.87753557 609.3795359 -51.88580778 606.8866096 -51.89686811 604.39369756 C-51.91381947 598.98973833 -51.90919674 593.58647445 -51.8851738 588.18255424 C-51.8495511 580.14696092 -51.85431241 572.11173725 -51.86696667 564.07609295 C-51.88706855 550.55378074 -51.87429988 537.03168639 -51.8421669 523.50940514 C-51.81037316 510.12094933 -51.79183947 496.73259037 -51.79131699 483.34409523 C-51.79127118 482.5103966 -51.79122538 481.67669797 -51.79117819 480.81773574 C-51.79103048 477.43334609 -51.79097454 474.04895646 -51.79104168 470.66456681 C-51.79160654 438.93651052 -51.75463367 407.20860152 -51.69841991 375.48060005 C-51.64864957 347.29604659 -51.62329488 319.11158392 -51.62120056 290.92698669 C-51.62112907 290.03045992 -51.62105758 289.13393314 -51.62098392 288.21023888 C-51.62083981 286.40120428 -51.62069779 284.59216969 -51.62055784 282.78313509 C-51.62020828 278.27735784 -51.6198374 273.77158059 -51.61944008 269.26580334 C-51.61936657 268.37686678 -51.61929305 267.48793021 -51.61921731 266.57205618 C-51.61666616 238.79564257 -51.59257162 211.01924548 -51.56506746 183.24284688 C-51.55596984 174.02937364 -51.5483423 164.81590362 -51.5450635 155.60242629 C-51.54476764 154.77312477 -51.54447178 153.94382325 -51.54416695 153.08939138 C-51.5435786 151.41939443 -51.54299112 149.74939747 -51.54240451 148.07940052 C-51.53697641 132.9781078 -51.52107153 117.87688167 -51.48745723 102.77562358 C-51.46994074 94.79010389 -51.46048422 86.80467406 -51.46279579 78.8191349 C-51.46357454 72.85924003 -51.44866679 66.89949375 -51.42756836 60.93963162 C-51.42143024 58.52672377 -51.42034217 56.11379681 -51.42476173 53.7008852 C-51.42998688 50.42480869 -51.41683617 47.14929944 -51.39905739 43.87327862 C-51.4049375 42.9335033 -51.41081761 41.99372799 -51.4168759 41.02547464 C-51.30560043 29.5401515 -47.08713455 20.50931966 -39.26036072 12.20018005 C-27.96966253 1.41692898 -14.98904481 -0.06317747 0 0 Z " fill="#071835" transform="translate(334.01036071777344,177.61231994628906)"/>
<path d="M0 0 C1.61771643 -0.00417769 3.23542993 -0.0096576 4.85313803 -0.01631981 C9.2787836 -0.03073587 13.70424232 -0.02654175 18.12989795 -0.019153 C22.91049933 -0.01441414 27.6910607 -0.02693749 32.47164917 -0.03717041 C41.82932985 -0.05434933 51.18694335 -0.05520034 60.54463571 -0.04995751 C68.15157561 -0.0459131 75.75849569 -0.04736258 83.36543465 -0.05270576 C84.4488454 -0.05345419 85.53225616 -0.05420261 86.64849754 -0.05497371 C88.84956316 -0.05650521 91.05062878 -0.05804356 93.25169439 -0.05958868 C113.88342995 -0.07331029 134.51512758 -0.06787827 155.14686228 -0.05640347 C174.01462376 -0.04647016 192.88228719 -0.05941407 211.75003355 -0.08333766 C231.13351616 -0.10772963 250.51695311 -0.11733636 269.90045077 -0.11068493 C280.77881603 -0.1071931 291.65710587 -0.1094225 302.53545952 -0.12693596 C311.79528812 -0.14165908 321.05498818 -0.14229181 330.31481426 -0.12486505 C335.0372234 -0.11635388 339.75940293 -0.11420844 344.48180008 -0.1295166 C348.80903252 -0.14336993 353.13583879 -0.1385923 357.46304662 -0.11927737 C359.02417008 -0.11551905 360.58532773 -0.11843447 362.14642071 -0.12888902 C376.03668658 -0.21525964 387.5500168 2.49254934 397.92713928 12.20018005 C407.17701374 22.08797689 410.30404859 33.40846143 410.2497015 46.64370251 C410.25350717 47.65530922 410.25731284 48.66691594 410.26123384 49.7091774 C410.27154861 53.1024044 410.26764359 56.49546407 410.26379395 59.88870239 C410.26824639 62.34472451 410.27356046 64.80074519 410.27966267 67.25676376 C410.29088823 72.59855998 410.295876 77.94030804 410.29534149 83.28211212 C410.29454753 91.22583621 410.30510562 99.16951727 410.31775706 107.11322985 C410.34248441 122.9538727 410.35127838 138.79450507 410.35629355 154.63516457 C410.35655472 155.45531215 410.3568159 156.27545973 410.35708499 157.12046027 C410.35734526 157.94226715 410.35760554 158.76407402 410.3578737 159.61078413 C410.36095693 168.72084882 410.36746198 177.8309106 410.37408638 186.94097328 C410.39373256 214.45978879 410.41013805 241.97860116 410.41296291 269.49742413 C410.41305697 270.37745287 410.41315104 271.25748162 410.41324795 272.1641779 C410.41362642 275.73050174 410.41399042 279.29682557 410.41435093 282.8631494 C410.41462264 285.54735168 410.41489932 288.23155395 410.41517639 290.91575623 C410.41526441 291.80271951 410.41535244 292.6896828 410.41544313 293.60352376 C410.41834849 321.47162984 410.4404446 349.33966656 410.47669983 377.20774841 C410.51743556 408.52058906 410.54112155 439.83338243 410.54142243 471.14625102 C410.54151925 474.48593669 410.54168597 477.82562234 410.54190254 481.165308 C410.54194666 481.98761718 410.54199077 482.80992637 410.54203622 483.65715401 C410.54315555 496.88384336 410.56055666 510.11046314 410.58372186 523.3371301 C410.60657656 536.63326831 410.61078174 549.92931265 410.59617256 563.22546329 C410.58802797 571.12132694 410.59368753 579.01689466 410.61935341 586.91272235 C410.63698324 592.81318355 410.62838781 598.71341957 410.60970832 604.61388383 C410.60621067 606.99744349 410.61113487 609.38103381 410.62541275 611.76455327 C410.72439166 629.42872965 409.15207319 642.58843261 396.98963928 656.38768005 C389.42508867 663.82589162 378.0840407 668.50385904 367.56603432 668.52469444 C366.9080018 668.52734627 366.24996929 668.5299981 365.57199639 668.53273028 C363.35146541 668.54043267 361.13098963 668.54098281 358.91044617 668.5415802 C357.30844878 668.54559424 355.7064524 668.55003236 354.10445726 668.55485976 C349.68972023 668.56683823 345.27499414 668.57247669 340.86024404 668.57704091 C336.10335016 668.58299238 331.34646939 668.59460356 326.58958435 668.60533142 C315.09345584 668.62986893 303.59732297 668.64448613 292.10117632 668.65739149 C288.85398506 668.66110294 285.60679424 668.66507623 282.3596034 668.66914415 C262.19565538 668.69438415 242.03170669 668.7164377 221.86774635 668.7288723 C217.19564944 668.73180202 212.52355255 668.73476367 207.85145569 668.73777771 C206.69022247 668.73852376 205.52898925 668.73926981 204.33256714 668.74003847 C185.53036844 668.75268618 166.72826444 668.78590022 147.92610998 668.82757954 C128.62194976 668.8700207 109.31783798 668.89357001 90.01363122 668.89879286 C79.17530426 668.90220489 68.33712517 668.91393528 57.49884415 668.9468956 C48.2659828 668.97492744 39.03329962 668.98588174 29.80039902 668.97470014 C25.09190569 668.9695212 20.38378529 668.97235042 15.67534637 668.99716568 C11.35815676 669.01972821 7.04160644 669.01886433 2.72440509 668.99996181 C1.16908324 668.99717154 -0.38628261 669.00270585 -1.94153397 669.01777475 C-15.33351336 669.13951409 -26.82027231 666.47064134 -37.01036072 657.38768005 C-37.60204041 656.91072693 -38.19372009 656.4337738 -38.80332947 655.94236755 C-46.09956542 649.53198807 -50.78910055 640.79927413 -51.65439153 631.15016592 C-51.99110463 624.72576825 -51.9253263 618.30316174 -51.87232971 611.87246704 C-51.87753557 609.3795359 -51.88580778 606.8866096 -51.89686811 604.39369756 C-51.91381947 598.98973833 -51.90919674 593.58647445 -51.8851738 588.18255424 C-51.8495511 580.14696092 -51.85431241 572.11173725 -51.86696667 564.07609295 C-51.88706855 550.55378074 -51.87429988 537.03168639 -51.8421669 523.50940514 C-51.81037316 510.12094933 -51.79183947 496.73259037 -51.79131699 483.34409523 C-51.79127118 482.5103966 -51.79122538 481.67669797 -51.79117819 480.81773574 C-51.79103048 477.43334609 -51.79097454 474.04895646 -51.79104168 470.66456681 C-51.79160654 438.93651052 -51.75463367 407.20860152 -51.69841991 375.48060005 C-51.64864957 347.29604659 -51.62329488 319.11158392 -51.62120056 290.92698669 C-51.62112907 290.03045992 -51.62105758 289.13393314 -51.62098392 288.21023888 C-51.62083981 286.40120428 -51.62069779 284.59216969 -51.62055784 282.78313509 C-51.62020828 278.27735784 -51.6198374 273.77158059 -51.61944008 269.26580334 C-51.61936657 268.37686678 -51.61929305 267.48793021 -51.61921731 266.57205618 C-51.61666616 238.79564257 -51.59257162 211.01924548 -51.56506746 183.24284688 C-51.55596984 174.02937364 -51.5483423 164.81590362 -51.5450635 155.60242629 C-51.54476764 154.77312477 -51.54447178 153.94382325 -51.54416695 153.08939138 C-51.5435786 151.41939443 -51.54299112 149.74939747 -51.54240451 148.07940052 C-51.53697641 132.9781078 -51.52107153 117.87688167 -51.48745723 102.77562358 C-51.46994074 94.79010389 -51.46048422 86.80467406 -51.46279579 78.8191349 C-51.46357454 72.85924003 -51.44866679 66.89949375 -51.42756836 60.93963162 C-51.42143024 58.52672377 -51.42034217 56.11379681 -51.42476173 53.7008852 C-51.42998688 50.42480869 -51.41683617 47.14929944 -51.39905739 43.87327862 C-51.4049375 42.9335033 -51.41081761 41.99372799 -51.4168759 41.02547464 C-51.30560043 29.5401515 -47.08713455 20.50931966 -39.26036072 12.20018005 C-27.96966253 1.41692898 -14.98904481 -0.06317747 0 0 Z M-27.01036072 30.38768005 C-35.06398396 40.99061211 -33.84326709 53.1183545 -33.7520752 65.78248596 C-33.75684332 68.17810634 -33.76423795 70.57372268 -33.77402443 72.96932781 C-33.78922314 78.16678155 -33.78588831 83.36387865 -33.76596832 88.56130219 C-33.73642869 96.29006129 -33.7414346 104.01853375 -33.75321921 111.74732658 C-33.7720186 124.75308618 -33.76255953 137.75868233 -33.73643684 150.76442337 C-33.71057392 163.64375958 -33.69587683 176.52302234 -33.69643974 189.40238571 C-33.69646268 190.20419072 -33.69648562 191.00599573 -33.69650925 191.83209786 C-33.69663198 195.08699912 -33.69682882 198.34190037 -33.69712669 201.59680162 C-33.69984368 232.11772513 -33.67002891 262.63853685 -33.62383769 293.15942157 C-33.58295962 320.26954093 -33.56425424 347.37958091 -33.56626892 374.48973083 C-33.56639015 376.23079217 -33.56651123 377.9718535 -33.56663216 379.71291484 C-33.56669321 380.57366725 -33.56675426 381.43441966 -33.56681717 382.32125547 C-33.56711956 386.65426494 -33.5673913 390.98727441 -33.56762791 395.32028389 C-33.56767805 396.1751407 -33.56772819 397.02999752 -33.56777985 397.91075908 C-33.56887557 420.57242051 -33.55525728 443.23407201 -33.53664821 465.89572513 C-33.5359874 466.70192566 -33.53532658 467.50812618 -33.53464574 468.33875703 C-33.5319811 471.58058046 -33.52931589 474.8224039 -33.52657287 478.06422727 C-33.51709808 489.33760921 -33.51256575 500.61098331 -33.5112384 511.88436896 C-33.50944644 526.41137831 -33.49744961 540.93832218 -33.46794403 555.46530356 C-33.45261215 563.14622189 -33.44536653 570.82704419 -33.44993258 578.50797707 C-33.45239796 584.24297558 -33.43916423 589.97785212 -33.41978108 595.71281444 C-33.41434384 598.03293498 -33.41394757 600.35307391 -33.41908295 602.67319514 C-33.42529013 605.82655629 -33.41306271 608.97933595 -33.39626408 612.13264656 C-33.40243003 613.03346661 -33.40859599 613.93428666 -33.41494879 614.86240429 C-33.3218381 624.43053178 -31.09408453 633.23735723 -24.22129822 640.20018005 C-16.82373415 647.05506568 -9.69749298 649.50583328 0.38381386 649.52190113 C1.68280857 649.52635897 2.98180328 649.53081682 4.32016146 649.53540975 C5.75992434 649.53532046 7.19968722 649.53513062 8.63945007 649.53485107 C10.17035241 649.53815142 11.70125388 649.54187735 13.23215425 649.54599255 C17.44100753 649.55600108 21.64984656 649.55972749 25.85871005 649.56238186 C30.39739509 649.56628828 34.93606886 649.57586633 39.4747467 649.58459473 C50.43610068 649.60434875 61.39745556 649.61442363 72.35882288 649.62332252 C77.5216853 649.62770682 82.68454669 649.63307323 87.84740829 649.63831139 C105.0111679 649.65532197 122.17492688 649.66981627 139.33869362 649.67706013 C143.79184088 649.67896999 148.24498814 649.68089033 152.69813538 649.68284607 C153.80493115 649.68332981 154.91172692 649.68381355 156.05206196 649.68431195 C173.9824892 649.69261275 191.91284974 649.71795128 209.84324785 649.75042675 C228.25475264 649.78350159 246.66622353 649.80150924 265.07775819 649.80470437 C275.41406477 649.80686898 285.75027405 649.8156106 296.08655167 649.84116554 C304.88901766 649.86287825 313.69136272 649.8709201 322.49385245 649.86119876 C326.98333524 649.85665585 331.47256853 649.85853984 335.96201706 649.87796021 C340.07664232 649.89560514 344.1908363 649.89458352 348.30546622 649.87906291 C349.78935718 649.87668886 351.2732781 649.88099987 352.75712331 649.89289156 C363.48821495 649.97352462 374.2321701 649.07769921 382.42323303 641.3603363 C389.4371171 632.52739003 391.14214422 623.63286221 391.12106705 612.75512314 C391.12311968 611.77448192 391.12517231 610.79384071 391.12728715 609.78348309 C391.13296879 606.4776064 391.13149846 603.17177123 391.13008118 599.8658905 C391.13266414 597.47972956 391.1356771 595.09356905 391.13908458 592.70740914 C391.14631759 586.82447331 391.14885759 580.94154589 391.14941363 575.05860665 C391.15032735 568.01297389 391.15699509 560.96734952 391.16376046 553.92172037 C391.17982141 536.8931129 391.18572367 519.86450632 391.19050921 502.83589263 C391.19284487 494.78130865 391.19644747 486.72672537 391.20020458 478.67214194 C391.21303964 451.10364738 391.22375929 423.53515322 391.22720718 395.96665573 C391.22742882 394.23604235 391.2276506 392.50542896 391.22787254 390.77481557 C391.22809318 389.04001229 391.22831366 387.30520901 391.22853398 385.57040572 C391.22897654 382.09006357 391.22942365 378.60972142 391.22987366 375.12937927 C391.22998305 374.26645662 391.23009244 373.40353396 391.23020514 372.51446213 C391.23383654 344.5282258 391.24975993 316.54201535 391.27306402 288.55578893 C391.29765428 258.97092648 391.31137963 229.38607884 391.3125751 199.80120587 C391.31274656 196.55422544 391.31296199 193.30724501 391.31320953 190.06026459 C391.31329319 188.86100736 391.31329319 188.86100736 391.31337853 187.63752271 C391.31452962 174.76602341 391.32555645 161.89455066 391.34009659 149.02306033 C391.3544555 136.08846991 391.35770199 123.15391356 391.34965661 110.21931735 C391.34519763 102.53376673 391.34907167 94.84832604 391.36489512 87.16278985 C391.37578208 81.42585572 391.37101262 75.68902013 391.36012325 69.95208994 C391.35815793 67.62975128 391.36128296 65.30740167 391.36996761 62.98507842 C391.38101726 59.83106136 391.37360157 56.6776029 391.36157608 53.52360153 C391.36917127 52.61975788 391.37676647 51.71591423 391.38459182 50.78468138 C391.29970901 40.48811907 388.08120366 32.47924443 380.80213928 25.20018005 C371.72895127 19.35301444 363.05127287 18.81335787 352.53527832 18.88647461 C350.97800711 18.88257688 349.42073946 18.87693266 347.86348015 18.86970371 C343.60492795 18.85499896 339.34674739 18.86510047 335.08820736 18.87944043 C330.4876045 18.89057467 325.88705273 18.87859955 321.28645325 18.86959839 C312.28234402 18.85568095 303.27837524 18.86321091 294.27427273 18.87827397 C283.78521028 18.895152 273.29618263 18.89192157 262.80711079 18.88817989 C244.0906629 18.88230412 225.37428233 18.89646217 206.65785217 18.92112732 C188.50222755 18.94505068 170.34669285 18.95212987 152.1910553 18.94163513 C132.41240833 18.93022269 112.63380294 18.92829965 92.85515648 18.94273323 C90.74569293 18.94425904 88.63622938 18.9457794 86.52676582 18.94729424 C85.48891254 18.94805205 84.45105925 18.94880986 83.38175587 18.94959064 C76.07263765 18.95433067 68.76353802 18.95248405 61.45442009 18.94822884 C52.54624806 18.94329933 43.638161 18.94929937 34.73000842 18.96912313 C30.18611025 18.97898622 25.6423414 18.98411082 21.09843636 18.97623062 C16.93666497 18.96916084 12.77515424 18.97600869 8.61341716 18.99383425 C7.1102061 18.99787032 5.6069712 18.99689302 4.10376912 18.99031539 C-9.01153133 18.93785034 -17.96027588 20.36486343 -27.01036072 30.38768005 Z " fill="#F3ECDA" transform="translate(334.01036071777344,177.61231994628906)"/>
<path d="M0 0 C2.48497947 2.48497947 2.47988361 3.88066061 3 7.3125 C3.42419867 10.08872878 3.80507743 12.54615122 4.9152832 15.13110352 C6.34989551 18.92541573 7.11010725 22.7582195 7.91796875 26.7265625 C8.28569505 28.48677549 8.65362293 30.24694637 9.02172852 32.00708008 C9.212117 32.92518463 9.40250549 33.84328918 9.59866333 34.78921509 C12.68735262 49.66406736 15.92310239 64.44224041 19.9675293 79.09033203 C20.23734619 80.07759277 20.50716309 81.06485352 20.78515625 82.08203125 C21.02113525 82.91968018 21.25711426 83.7573291 21.50024414 84.62036133 C22.03005447 87.14310742 22.08900885 89.42961905 22 92 C26.01984571 89.71464327 29.63828488 87.05887075 33.25 84.1875 C33.84409668 83.71900635 34.43819336 83.2505127 35.05029297 82.76782227 C38.58655622 79.96459787 42.08168269 77.11557392 45.5546875 74.234375 C46.31491211 73.60378174 47.07513672 72.97318848 47.85839844 72.32348633 C49.34672131 71.08508755 50.83186065 69.84285072 52.31347656 68.59643555 C52.99635742 68.02707275 53.67923828 67.45770996 54.3828125 66.87109375 C54.98496582 66.36505615 55.58711914 65.85901855 56.20751953 65.33764648 C58.05658493 63.95777324 59.90963759 62.96692927 62 62 C60.71612899 64.63269761 59.34702362 67.16091502 57.8203125 69.66015625 C57.39153809 70.36261475 56.96276367 71.06507324 56.52099609 71.78881836 C56.06031738 72.5391333 55.59963867 73.28944824 55.125 74.0625 C54.64756348 74.84310791 54.17012695 75.62371582 53.67822266 76.42797852 C49.46213829 83.29876106 45.15496183 90.11096392 40.79736328 96.89282227 C40.31509277 97.64877686 39.83282227 98.40473145 39.3359375 99.18359375 C38.69470947 100.18217407 38.69470947 100.18217407 38.04052734 101.20092773 C36.84566478 103.12762499 36.84566478 103.12762499 36 106 C36.71542969 106.11102051 37.43085937 106.22204102 38.16796875 106.33642578 C45.85274419 107.56792844 53.41481533 109.14011123 61 110.875 C82.89651741 115.80272071 104.9374281 119.8966741 127 124 C124.46452089 126.53547911 122.58014125 126.79036667 119.109375 127.65625 C117.92472656 127.95660156 116.74007812 128.25695312 115.51953125 128.56640625 C114.27558594 128.87449219 113.03164063 129.18257812 111.75 129.5 C109.30682287 130.11271704 106.86409799 130.72724084 104.421875 131.34375 C103.33487305 131.61380859 102.24787109 131.88386719 101.12792969 132.16210938 C98.03603641 132.99034679 95.03484523 133.98532868 92 135 C90.34964702 135.42957906 88.69323502 135.83663888 87.03125 136.21875 C86.13019531 136.42886719 85.22914063 136.63898438 84.30078125 136.85546875 C81.5 137.5 81.5 137.5 78.69921875 138.14453125 C77.79816406 138.35464844 76.89710938 138.56476563 75.96875 138.78125 C75.15857422 138.96751953 74.34839844 139.15378906 73.51367188 139.34570312 C71.6975252 139.8184375 69.90122063 140.36974028 68.12255859 140.96826172 C64.79844129 142.0665979 61.47508412 142.913033 58.0703125 143.7265625 C57.11751907 143.95537613 57.11751907 143.95537613 56.14547729 144.18881226 C54.13923474 144.67001754 52.13214345 145.14756799 50.125 145.625 C48.75515031 145.95288266 47.38535805 146.28100538 46.015625 146.609375 C42.67764015 147.40861081 39.33909128 148.20540171 36 149 C41.28187755 158.17641663 46.78548814 167.19529948 52.39770508 176.17358398 C53.45224563 177.86223047 54.50158174 179.55412356 55.55078125 181.24609375 C56.16606689 182.23279053 56.78135254 183.2194873 57.4152832 184.23608398 C58.87253687 186.77769064 59.99345376 189.25353535 61 192 C58.121582 190.6685435 55.80803749 189.16701678 53.3828125 187.12890625 C52.69977051 186.55946289 52.01672852 185.99001953 51.31298828 185.40332031 C50.59095215 184.79584961 49.86891602 184.18837891 49.125 183.5625 C43.51166416 178.88815299 37.87307763 174.25801012 32.125 169.75 C31.5489502 169.2969751 30.97290039 168.8439502 30.37939453 168.37719727 C27.96646074 166.49066231 25.55019083 164.70012722 23 163 C22.88884354 163.58795853 22.77768707 164.17591705 22.66316223 164.7816925 C21.37381612 171.43035956 19.80905965 177.98134412 18.13671875 184.54296875 C17.57350417 186.7753746 17.01035534 189.00779703 16.44726562 191.24023438 C15.5733271 194.69296006 14.69819727 198.14537743 13.8215332 201.59741211 C8.99549241 220.62301791 4.41674657 239.66489671 1 259 C0.34 259 -0.32 259 -1 259 C-1.17160645 258.11731445 -1.34321289 257.23462891 -1.52001953 256.32519531 C-3.46916549 246.42595898 -5.61912728 236.58349713 -7.875 226.75 C-8.13679047 225.60362061 -8.13679047 225.60362061 -8.40386963 224.43408203 C-10.59935495 214.83024497 -12.89638848 205.27131793 -15.48339844 195.76416016 C-16.74971285 191.07967469 -17.75087233 186.42012939 -18.53125 181.6328125 C-19.30337716 177.29603159 -20.37506761 173.02942448 -21.4140625 168.75 C-22 166 -22 166 -22 163 C-30.63644925 168.72465131 -38.59928052 174.86343961 -46.42578125 181.63916016 C-48.97522317 183.84303566 -51.54216432 186.02267589 -54.125 188.1875 C-54.99382812 188.92355469 -55.86265625 189.65960938 -56.7578125 190.41796875 C-59 192 -59 192 -62 192 C-52.72194595 177.29736025 -43.41097344 162.61795195 -34 148 C-34.5674292 147.89333008 -35.1348584 147.78666016 -35.71948242 147.67675781 C-42.97930695 146.27242442 -50.14170751 144.5502258 -57.3125 142.75 C-58.54798584 142.4413501 -59.78347168 142.1327002 -61.05639648 141.81469727 C-68.270649 139.99490685 -75.42932375 138.05082498 -82.5625 135.9375 C-91.92340236 133.16582579 -101.39547392 131.03687199 -110.94165039 129.00366211 C-112.0321167 128.77042236 -113.12258301 128.53718262 -114.24609375 128.296875 C-115.21216553 128.09416992 -116.1782373 127.89146484 -117.17358398 127.68261719 C-120.18506853 126.95530348 -123.0752245 126.01792464 -126 125 C-121.47372228 120.47372228 -112.93269158 120.48370542 -106.83203125 119.66015625 C-103.73813739 119.12716128 -100.75315422 118.48560476 -97.703125 117.7578125 C-87.67496401 115.40402309 -77.55683428 113.480649 -67.44946289 111.5012207 C-63.91400585 110.80789263 -60.37984691 110.10819081 -56.84570312 109.40820312 C-54.59382586 108.96575956 -52.34187533 108.52368868 -50.08984375 108.08203125 C-49.03570786 107.87270462 -47.98157196 107.66337799 -46.89549255 107.44770813 C-45.91669632 107.25718369 -44.93790009 107.06665924 -43.92944336 106.87036133 C-43.07152695 106.70176102 -42.21361053 106.53316071 -41.32969666 106.35945129 C-39 106 -39 106 -35 106 C-38.20352376 99.29883243 -41.92454761 93.01217977 -45.8125 86.6875 C-46.40353516 85.71876953 -46.99457031 84.75003906 -47.60351562 83.75195312 C-50.04101617 79.76742388 -52.47887483 75.79295162 -55.04443359 71.88916016 C-55.6936377 70.90093262 -56.3428418 69.91270508 -57.01171875 68.89453125 C-57.90636841 67.55612183 -57.90636841 67.55612183 -58.8190918 66.19067383 C-59.2087915 65.46775146 -59.59849121 64.7448291 -60 64 C-59.505 63.01 -59.505 63.01 -59 62 C-58.11699219 62.76183594 -57.23398437 63.52367187 -56.32421875 64.30859375 C-48.96583069 70.64463994 -41.55216623 76.89495545 -34 83 C-33.07703125 83.75796875 -32.1540625 84.5159375 -31.203125 85.296875 C-30.31109375 86.02390625 -29.4190625 86.7509375 -28.5 87.5 C-27.7059375 88.1496875 -26.911875 88.799375 -26.09375 89.46875 C-23.98472153 91.17441267 -23.98472153 91.17441267 -21 92 C-20.96406738 91.42531982 -20.92813477 90.85063965 -20.89111328 90.25854492 C-20.31788766 83.0403335 -18.71778825 76.30096217 -16.875 69.3125 C-14.21379449 58.9721116 -11.74419431 48.61205551 -9.4375 38.1875 C-6.59187406 25.3737595 -3.43930253 12.66679272 0 0 Z " fill="#F8C12D" transform="translate(512,308)"/>
<path d="M0 0 C1.60976878 -0.00389948 3.21953411 -0.00954508 4.8292914 -0.0167709 C9.22381929 -0.03145084 13.61798612 -0.02138898 18.01250207 -0.00703418 C22.76311288 0.00411449 27.51367465 -0.00787989 32.26428223 -0.01687622 C41.55955658 -0.03078454 50.85469477 -0.02327013 60.1499626 -0.00820064 C70.98332584 0.00869131 81.81665547 0.00544514 92.65002782 0.00170528 C111.9852643 -0.00416897 131.3204356 0.00998081 150.65565491 0.03465271 C169.40079695 0.05856884 188.14585191 0.06565768 206.89100647 0.05516052 C227.32087033 0.04374037 247.75069393 0.04183507 268.18055731 0.05625862 C270.36083543 0.0577844 272.54111355 0.05930475 274.72139168 0.06081963 C275.79402557 0.06157744 276.86665947 0.06233525 277.97179742 0.06311603 C285.51600396 0.06785064 293.06019247 0.06601324 300.60439873 0.06175423 C309.80409124 0.05681756 319.00370154 0.06285638 328.20337527 0.08264852 C332.89360076 0.0924918 337.58370134 0.09765779 342.27393341 0.08975601 C346.57399563 0.08266002 350.87380665 0.08959471 355.17383594 0.10735964 C356.72281869 0.11137891 358.27182463 0.11044706 359.82079851 0.10384078 C377.14816625 0.03631085 390.75579871 3.07742988 403.66664124 15.11839294 C417.72089745 30.53763088 417.28002454 47.80466597 417.21946716 67.48960876 C417.22292658 69.93757222 417.22769305 72.38553411 417.2336489 74.83349276 C417.24354371 80.14221669 417.24418125 85.45081987 417.23650742 90.75953865 C417.22512709 98.65396988 417.23097819 106.54832426 417.24013234 114.44275503 C417.25590677 128.5448362 417.25456948 142.64687652 417.2458956 156.74896155 C417.23834232 169.0900917 417.23638191 181.43120689 417.23996353 193.77233887 C417.24030726 195.00132397 417.24030726 195.00132397 417.24065794 196.25513706 C417.24159199 199.5812236 417.24254719 202.90731014 417.24353723 206.23339667 C417.25270965 237.42048527 417.24440111 268.6075479 417.22824654 299.7946325 C417.21401024 327.48899235 417.21528414 355.1833108 417.22962952 382.87767029 C417.24570115 414.00852897 417.25205909 445.1393647 417.24279273 476.27022696 C417.24183061 479.59017531 417.24089208 482.91012366 417.23996353 486.23007202 C417.23960768 487.45621287 417.23960768 487.45621287 417.23924465 488.70712424 C417.23583542 501.03904941 417.2398171 513.37095798 417.24740219 525.70288086 C417.25598581 539.72795334 417.25382301 553.75297868 417.23755996 567.7780453 C417.22876298 575.62275782 417.22815884 583.46736818 417.23949848 591.31207801 C417.24703625 597.17426834 417.23883736 603.03636891 417.22457476 608.89854902 C417.22122845 611.26647674 417.22291762 613.63441816 417.23020212 616.00233704 C417.28591527 635.62012432 416.27992787 653.49209263 401.97523499 668.53245544 C396.28248216 673.77769753 390.17973031 677.17246442 382.83851624 679.50120544 C381.94772328 679.83916978 381.05693033 680.17713411 380.13914365 680.52533978 C376.58804122 681.57526105 373.70672841 681.75297069 370.00894642 681.75568104 C369.01074144 681.76049075 369.01074144 681.76049075 367.99237069 681.76539764 C365.76455005 681.77369281 363.53699859 681.76777512 361.30917358 681.76190186 C359.69491133 681.76492278 358.08065051 681.76881196 356.46639222 681.77349442 C352.03174349 681.78379115 347.59717545 681.78158832 343.16252005 681.77731383 C338.37913044 681.77484958 333.5957604 681.78385713 328.81237793 681.79135132 C319.44079173 681.80410966 310.06923417 681.80589052 300.69764075 681.80355106 C293.0791672 681.80176866 285.46070235 681.80351585 277.84222984 681.8077755 C276.75827713 681.80837069 275.67432441 681.80896588 274.55752465 681.8095791 C272.35549289 681.81079085 270.15346114 681.81200498 267.95142939 681.81322148 C247.29301329 681.82410181 226.63461351 681.82193244 205.97619649 681.81583663 C187.08233173 681.81066951 168.18851856 681.82191663 149.294664 681.84093485 C129.89323315 681.86031417 110.49182669 681.86856893 91.09038609 681.8648116 C80.19855915 681.86289938 69.30677609 681.86538896 58.41495705 681.87952614 C49.14041274 681.89144224 39.86593933 681.89284239 30.59139404 681.88073597 C25.86094608 681.87484834 21.13062776 681.87374462 16.40018845 681.88573837 C12.06546199 681.89660085 7.73097337 681.89348944 3.39625802 681.87947669 C1.8323221 681.87683072 0.26836752 681.87919313 -1.29555007 681.88721255 C-17.32487211 681.96366889 -31.26716168 678.77203854 -43.31773376 667.53636169 C-53.41327308 656.39276851 -57.32055445 643.29382324 -57.29291153 628.60594654 C-57.29496416 627.59690257 -57.2970168 626.5878586 -57.29913163 625.54823753 C-57.30481443 622.14573265 -57.3033428 618.74326808 -57.30192566 615.34075928 C-57.30450856 612.88518944 -57.30752151 610.42962001 -57.31092906 607.97405118 C-57.31816275 601.9194012 -57.32070212 595.86476486 -57.32125812 589.8101119 C-57.32217176 582.55891215 -57.32883931 575.30772056 -57.33560494 568.05652433 C-57.35166694 550.5305666 -57.35756835 533.00460974 -57.36235369 515.47864598 C-57.36468933 507.18853724 -57.36829194 498.8984292 -57.37204907 490.60832101 C-57.38488446 462.23302116 -57.39560389 433.8577217 -57.39905167 405.48241901 C-57.3992733 403.70110075 -57.39949508 401.91978249 -57.39971702 400.13846422 C-57.39993766 398.35283401 -57.40015814 396.5672038 -57.40037847 394.78157359 C-57.40082102 391.19926663 -57.40126813 387.61695967 -57.40171814 384.03465271 C-57.40182753 383.14644849 -57.40193692 382.25824426 -57.40204963 381.34312476 C-57.40568072 352.53934778 -57.42160282 323.73559596 -57.4449085 294.93182862 C-57.46950102 264.48201102 -57.48322423 234.03220781 -57.48441958 203.58238 C-57.48459104 200.24017377 -57.48480647 196.89796756 -57.48505402 193.55576134 C-57.48510978 192.73281038 -57.48516555 191.90985943 -57.48522301 191.06197057 C-57.48637393 177.81501651 -57.49739937 164.56808826 -57.51194107 151.32114291 C-57.52630291 138.00790534 -57.52954481 124.69470086 -57.52150109 111.38145766 C-57.51704344 103.4717182 -57.52091087 95.56208557 -57.5367396 87.65236014 C-57.54763218 81.74676969 -57.5428529 75.84125959 -57.53196773 69.93566682 C-57.53000347 67.54601611 -57.53312262 65.15635474 -57.54181209 62.76671902 C-57.55287327 59.51951719 -57.54543764 56.2728568 -57.53342056 53.02567005 C-57.54101576 52.09717954 -57.54861095 51.16868903 -57.5564363 50.21206245 C-57.46962781 39.35175565 -53.73206517 30.67953311 -48.16148376 21.50120544 C-47.75542908 20.78964294 -47.34937439 20.07808044 -46.93101501 19.34495544 C-36.80218126 3.63747171 -17.20635869 -0.11623304 0 0 Z M-37.16148376 18.50120544 C-37.79828064 19.04776794 -38.43507751 19.59433044 -39.09117126 20.15745544 C-45.05814512 25.58663337 -48.95013129 32.49590879 -50.16148376 40.50120544 C-50.31163628 43.83225277 -50.30628134 47.16061568 -50.30408478 50.49461269 C-50.3073358 51.5142769 -50.31058682 52.5339411 -50.31393635 53.58450422 C-50.32365014 57.02316996 -50.32623002 60.46180422 -50.32884216 63.90048218 C-50.33428779 66.3820753 -50.34015117 68.86366754 -50.34639788 71.34525877 C-50.36060058 77.46440136 -50.37006978 83.58353648 -50.37748657 89.70269058 C-50.38381243 94.79203424 -50.39247329 99.88136956 -50.40264511 104.97070694 C-50.40411211 105.70498206 -50.40557911 106.43925717 -50.40709056 107.19578305 C-50.41009118 108.69333622 -50.41309542 110.19088937 -50.41610322 111.68844252 C-50.45463234 131.08631388 -50.47963892 150.48419853 -50.50228032 169.88209398 C-50.50522425 172.39542268 -50.50821428 174.90875132 -50.51121831 177.42207995 C-50.54937179 209.39933169 -50.58287904 241.37658827 -50.60447746 273.35385578 C-50.60997146 281.48215539 -50.61567106 289.61045486 -50.6214447 297.73875427 C-50.62207713 298.63689936 -50.62270956 299.53504444 -50.62336115 300.46040605 C-50.64403858 329.57578105 -50.69000455 358.69104449 -50.75009739 387.80636283 C-50.81177098 417.74214836 -50.85069123 447.67787414 -50.8599807 477.61372416 C-50.86129742 481.84310504 -50.86285937 486.07248579 -50.86456299 490.30186653 C-50.86488845 491.13422985 -50.86521391 491.96659316 -50.86554923 492.82417961 C-50.87142233 506.21173701 -50.90098147 519.59914172 -50.93926921 532.98664124 C-50.97721911 546.44784645 -50.98940223 559.90888309 -50.9755066 573.37013625 C-50.96801726 581.36364833 -50.97992212 589.35657557 -51.01992977 597.34999402 C-51.04766895 603.32508641 -51.0386496 609.29953742 -51.01556331 615.27467389 C-51.01191676 617.68728693 -51.02006004 620.09995346 -51.04134482 622.51247536 C-51.17903907 639.12358391 -49.90475006 650.23392286 -38.47398376 663.00120544 C-30.2887329 670.5991177 -19.60646627 675.74261537 -8.36873531 675.76126766 C-7.70724126 675.76507333 -7.04574722 675.768879 -6.36420789 675.7728 C-4.14990098 675.78309798 -1.93585126 675.77921298 0.2784729 675.77536011 C1.88306091 675.77981351 3.48764672 675.78512789 5.09222931 675.79122883 C9.50020598 675.80540738 13.90811214 675.80707215 18.31610835 675.80663192 C23.07091201 675.80828029 27.82568664 675.82134728 32.58047485 675.83282471 C42.97735465 675.85567359 53.37421404 675.86359539 63.77111554 675.86865115 C70.26493397 675.87190868 76.75874649 675.87843155 83.25256157 675.88565254 C101.23730688 675.90521931 119.22204668 675.92162274 137.20680332 675.92452908 C138.93313435 675.92481043 138.93313435 675.92481043 140.69434076 675.92509747 C143.0274146 675.92546372 145.36048844 675.92582742 147.69356228 675.92618858 C148.85168273 675.92637139 150.00980318 675.9265542 151.20301819 675.92674255 C152.3625549 675.9269231 153.52209162 675.92710365 154.71676581 675.92728967 C173.4993794 675.93083022 192.28187825 675.95784483 211.06445206 675.99524044 C230.35515262 676.03333982 249.64579628 676.05268668 268.9365353 676.05298859 C279.76474994 676.05357283 290.59282777 676.06204361 301.42100716 676.09098625 C310.64282443 676.11552204 319.86445499 676.12276823 329.08629609 676.10773873 C333.7887287 676.10057854 338.4907928 676.10138874 343.1931839 676.12414932 C347.50471216 676.14481743 351.81559044 676.14206639 356.12711226 676.12127448 C357.68032171 676.11779447 359.2335788 676.12262601 360.78672583 676.13697892 C374.09593852 676.25196719 386.52981636 673.42369758 396.83851624 664.50120544 C402.67392461 658.48865074 406.16341249 652.38084271 408.83851624 644.50120544 C409.17948448 643.83218531 409.52045272 643.16316518 409.87175333 642.47387171 C411.26840597 638.17935215 411.11542927 634.10328889 411.09578514 629.61432648 C411.10104425 628.1021087 411.10104425 628.1021087 411.10640961 626.55934107 C411.1157602 623.15982205 411.1107908 619.76047297 411.10594177 616.36094666 C411.1096762 613.90751394 411.11427689 611.45408241 411.11967242 609.00065279 C411.12937744 603.65521666 411.13281389 598.30983045 411.13076019 592.9643898 C411.1277136 585.01520989 411.13602673 577.06607015 411.14650944 569.11689804 C411.16586794 554.09276406 411.1714784 539.06864372 411.17262356 524.04449874 C411.17354225 512.44051144 411.17765685 500.8365295 411.18402481 489.23254395 C411.18581989 485.89364132 411.18759951 482.55473868 411.18937457 479.21583605 C411.18981666 478.38578916 411.19025876 477.55574227 411.19071425 476.70054244 C411.20302606 453.34631398 411.21091506 429.99208738 411.21002769 406.63785553 C411.20999654 405.75702874 411.20996538 404.87620194 411.20993328 403.96868343 C411.20976706 399.5041977 411.20956898 395.03971197 411.20936386 390.57522625 C411.20932397 389.68855147 411.20928408 388.80187669 411.20924298 387.88833299 C411.20916211 386.09525812 411.20907851 384.30218326 411.2089922 382.5091084 C411.20776711 354.62136208 411.22277074 326.73366441 411.25013733 298.84593201 C411.28086629 267.51883118 411.29806926 236.19176233 411.29621089 204.86464548 C411.29606162 201.52322801 411.29596421 198.18181054 411.29590225 194.84039307 C411.29587894 194.01764438 411.29585563 193.1948957 411.29583162 192.34721523 C411.2957701 179.11200489 411.30853736 165.8768368 411.32576678 152.64163902 C411.34273057 139.33506097 411.34469134 126.02854468 411.33154814 112.7219618 C411.32416332 104.81948957 411.32780279 96.91720506 411.34743282 89.01475277 C411.360861 83.10924042 411.35330884 77.20387448 411.33768637 71.29836351 C411.3346109 68.91269731 411.33826937 66.52701075 411.34940653 64.14136857 C411.42635085 46.48776655 410.78017437 31.90333416 397.88929749 18.46995544 C389.93092014 11.0900849 380.82968714 7.25698396 369.89148521 7.24393654 C368.89244825 7.23867743 368.89244825 7.23867743 367.87322873 7.23331207 C365.64952713 7.22403496 363.42608955 7.22891174 361.20237732 7.23377991 C359.58867703 7.23004177 357.97497856 7.22543959 356.36128294 7.22004926 C351.93275862 7.20782379 347.50430987 7.20807921 343.07577252 7.21043801 C338.297131 7.2108463 333.51851366 7.19980579 328.73988342 7.19032288 C319.3791297 7.17371371 310.01840117 7.16821334 300.65763395 7.16709812 C293.04682887 7.16614748 285.43603209 7.16203638 277.82522964 7.15569687 C256.24012495 7.13808366 234.65504014 7.12885797 213.06992821 7.13035782 C211.90639918 7.13043773 210.74287014 7.13051764 209.54408264 7.13059998 C208.3791302 7.13068174 207.21417775 7.1307635 206.01392372 7.13084774 C187.14085952 7.13166036 168.26787519 7.11252877 149.39483409 7.08432324 C130.00918128 7.05558065 110.6235674 7.04178375 91.23789275 7.04351079 C80.35717816 7.04417428 69.47654727 7.03870012 58.5958519 7.01715469 C49.33015866 6.99892469 40.06458703 6.99461043 30.7988836 7.00817354 C26.07421761 7.01469435 21.34978481 7.01485254 16.62514114 6.99746704 C12.29337457 6.98169169 7.96202521 6.98464526 3.63026853 7.0020353 C2.06968963 7.00509544 0.50907925 7.00151029 -1.05146249 6.99031515 C-15.0020466 6.89692601 -26.66622749 8.78794866 -37.16148376 18.50120544 Z " fill="#0F1925" transform="translate(333.16148376464844,170.49879455566406)"/>
<path d="M0 0 C1.11169695 1.66754542 2.21153546 3.34382698 3.26171875 5.05078125 C11.21936998 17.67401429 21.71186784 22.73600659 36 26 C41.63774465 27.07376118 47.32359207 27.85107481 53.00726318 28.63726807 C57.46115071 29.25442989 61.91028066 29.90399457 66.359375 30.5546875 C67.21856537 30.67995819 68.07775574 30.80522888 68.96298218 30.93429565 C74.97347519 31.8210897 80.93304056 32.85213562 86.875 34.125 C98.49592609 36.61364316 110.24926275 38.25125487 122 40 C133.5061599 41.72142694 144.91904119 43.68500632 156.3125 46.046875 C159.1223541 46.62830214 161.92014406 47.15719128 164.75 47.640625 C177.2534258 49.81756074 190.80201736 53.38397347 202.17504883 59.09155273 C204.71601325 60.35642613 206.17697639 60.39391027 209 60 C209.96679688 59.40445313 210.93359375 58.80890625 211.9296875 58.1953125 C216.89549791 55.28170915 222.28503462 53.97839723 227.8125 52.5 C228.93052002 52.19594238 230.04854004 51.89188477 231.20043945 51.57861328 C247.85419342 47.10047371 264.53461687 43.98363618 281.5546875 41.21875 C287.81788663 40.20111927 294.06604734 39.11491192 300.3125 38 C309.70514872 36.33560844 319.12863122 34.905953 328.5625 33.5 C340.57709853 31.70702763 352.54882036 29.77697982 364.47802734 27.47509766 C367.10221938 26.98074357 369.73136457 26.52549977 372.36328125 26.07421875 C386.47586833 23.57911128 399.4472331 19.79450295 408.375 7.8125 C410.09247445 5.05723402 410.09247445 5.05723402 411 2 C411.66 2 412.32 2 413 2 C413.10181508 8.68932017 413.17163915 15.37843887 413.21972656 22.06835938 C413.23978317 24.34187284 413.26703538 26.6153351 413.30175781 28.88867188 C413.35053712 32.16549349 413.37302897 35.44163025 413.390625 38.71875 C413.41127014 39.72740112 413.43191528 40.73605225 413.45318604 41.77526855 C413.45572881 49.85825579 411.28486569 54.69963844 406.75 61.25 C400.42902307 67.57097693 393.34702304 69.11886296 384.60303211 69.13701439 C382.653615 69.1446262 382.653615 69.1446262 380.66481572 69.15239179 C379.22436388 69.15299341 377.78391199 69.15349251 376.34346008 69.15390015 C374.81184487 69.15791656 373.28023071 69.16235508 371.74861783 69.1671797 C367.53783601 69.17913073 363.32706563 69.18479022 359.11627018 69.18936086 C354.5755578 69.19532238 350.03485906 69.20693069 345.49415588 69.21765137 C334.52836089 69.24216041 323.56256138 69.25679911 312.59674743 69.26971143 C309.49948657 69.27342407 306.40222615 69.27739723 303.30496573 69.2814641 C284.06969286 69.30669825 264.83441926 69.32875038 245.59913349 69.34119225 C241.14494639 69.34412191 236.69075931 69.34708358 232.23657227 69.35009766 C231.12951418 69.35084371 230.0224561 69.35158976 228.8818508 69.35235842 C210.94426495 69.36501474 193.00677817 69.3982428 175.06923864 69.43989949 C156.65208929 69.48231941 138.23499067 69.50588723 119.81779259 69.51111281 C109.47757992 69.51452654 99.13752214 69.52627764 88.79735756 69.55921555 C79.99228499 69.58721776 71.18739909 69.59821452 62.38228545 69.58702008 C57.89084664 69.58183418 53.39979875 69.58471585 48.90841675 69.60948563 C44.79314937 69.63199152 40.67855342 69.6312282 36.56327417 69.61228175 C35.07805114 69.60948363 33.59278246 69.61506996 32.10763279 69.63009469 C22.51986453 69.72112608 14.36012795 69.02659408 7.09684163 62.21526563 C5.53798614 60.5360941 4.24380891 58.92577268 3 57 C2.48518066 56.21214111 1.97036133 55.42428223 1.43994141 54.61254883 C-0.61231192 49.46382171 -0.37135376 44.74843411 -0.29296875 39.2578125 C-0.28872391 38.13430389 -0.28447906 37.01079529 -0.28010559 35.85324097 C-0.2633589 32.27691337 -0.22571296 28.70115631 -0.1875 25.125 C-0.17244803 22.69532066 -0.15876052 20.26563245 -0.14648438 17.8359375 C-0.11346846 11.89043146 -0.0633085 5.9452565 0 0 Z " fill="#F4EDD9" transform="translate(307,752)"/>
<path d="M0 0 C1.52299523 2.93720508 2.80100302 5.9168649 4 9 C4.33 9 4.66 9 5 9 C5 42.66 5 76.32 5 111 C-16 111 -16 111 -22 110 C-23.45302281 109.85277042 -24.9084458 109.72699068 -26.36547852 109.62695312 C-27.1697377 109.57019409 -27.97399689 109.51343506 -28.80262756 109.45495605 C-29.65279953 109.39763306 -30.5029715 109.34031006 -31.37890625 109.28125 C-33.20507814 109.15234399 -35.03125002 109.02343773 -36.85742188 108.89453125 C-39.71665776 108.69625678 -42.57596685 108.49907299 -45.43530273 108.30224609 C-48.20836152 108.1103768 -50.98113228 107.91468555 -53.75390625 107.71875 C-54.60610245 107.661427 -55.45829865 107.604104 -56.33631897 107.54504395 C-60.31252793 107.26332656 -64.09500366 106.82835837 -68 106 C-69.68499351 105.86008298 -71.37326048 105.75604888 -73.0625 105.68359375 C-74.01842041 105.64177979 -74.97434082 105.59996582 -75.95922852 105.55688477 C-76.96268311 105.51748779 -77.9661377 105.47809082 -79 105.4375 C-80.02859131 105.39359131 -81.05718262 105.34968262 -82.11694336 105.30444336 C-88.55198473 105.04529716 -94.94100402 104.93692802 -101.37890625 105.16015625 C-104.50331985 104.96924573 -107.07971416 104.0934991 -110 103 C-110 102.01 -110 101.02 -110 100 C-97.05383419 96.15287907 -84.0927687 93.29960344 -70.8125 90.875 C-68.10004014 90.37201766 -65.38800379 89.86679657 -62.67599487 89.36138916 C-60.92246405 89.0351668 -59.16866374 88.7103892 -57.4145813 88.387146 C-50.90429104 87.18443676 -44.41887907 85.88219944 -37.94018555 84.52001953 C-35 84 -35 84 -31 84 C-34.20352376 77.29883243 -37.92454761 71.01217977 -41.8125 64.6875 C-42.40353516 63.71876953 -42.99457031 62.75003906 -43.60351562 61.75195312 C-46.04101617 57.76742388 -48.47887483 53.79295162 -51.04443359 49.88916016 C-51.6936377 48.90093262 -52.3428418 47.91270508 -53.01171875 46.89453125 C-53.60815186 46.0022583 -54.20458496 45.10998535 -54.8190918 44.19067383 C-55.2087915 43.46775146 -55.59849121 42.7448291 -56 42 C-55.505 41.01 -55.505 41.01 -55 40 C-54.11699219 40.76183594 -53.23398437 41.52367187 -52.32421875 42.30859375 C-44.96583069 48.64463994 -37.55216623 54.89495545 -30 61 C-29.07703125 61.75796875 -28.1540625 62.5159375 -27.203125 63.296875 C-26.31109375 64.02390625 -25.4190625 64.7509375 -24.5 65.5 C-23.7059375 66.1496875 -22.911875 66.799375 -22.09375 67.46875 C-19.98472153 69.17441267 -19.98472153 69.17441267 -17 70 C-16.96479248 69.42894531 -16.92958496 68.85789062 -16.89331055 68.26953125 C-16.31477834 60.94582291 -14.67574916 54.09207913 -12.8125 47 C-10.01992709 36.15816123 -7.40834172 25.29490198 -5.04223633 14.3515625 C-3.88314626 9.15326938 -2.69441221 4.61219972 0 0 Z " fill="#F7DF43" transform="translate(508,330)"/>
<path d="M0 0 C2.48497947 2.48497947 2.47988361 3.88066061 3 7.3125 C3.42419867 10.08872878 3.80507743 12.54615122 4.9152832 15.13110352 C6.34989551 18.92541573 7.11010725 22.7582195 7.91796875 26.7265625 C8.28569505 28.48677549 8.65362293 30.24694637 9.02172852 32.00708008 C9.212117 32.92518463 9.40250549 33.84328918 9.59866333 34.78921509 C12.68735262 49.66406736 15.92310239 64.44224041 19.9675293 79.09033203 C20.37225464 80.57122314 20.37225464 80.57122314 20.78515625 82.08203125 C21.02113525 82.91968018 21.25711426 83.7573291 21.50024414 84.62036133 C22.03005447 87.14310742 22.08900885 89.42961905 22 92 C26.01984571 89.71464327 29.63828488 87.05887075 33.25 84.1875 C34.14114502 83.48475952 34.14114502 83.48475952 35.05029297 82.76782227 C38.58655622 79.96459787 42.08168269 77.11557392 45.5546875 74.234375 C46.31491211 73.60378174 47.07513672 72.97318848 47.85839844 72.32348633 C49.34672131 71.08508755 50.83186065 69.84285072 52.31347656 68.59643555 C53.33779785 67.74239136 53.33779785 67.74239136 54.3828125 66.87109375 C54.98496582 66.36505615 55.58711914 65.85901855 56.20751953 65.33764648 C58.05658493 63.95777324 59.90963759 62.96692927 62 62 C60.71612899 64.63269761 59.34702362 67.16091502 57.8203125 69.66015625 C57.39153809 70.36261475 56.96276367 71.06507324 56.52099609 71.78881836 C56.06031738 72.5391333 55.59963867 73.28944824 55.125 74.0625 C54.64756348 74.84310791 54.17012695 75.62371582 53.67822266 76.42797852 C49.46213829 83.29876106 45.15496183 90.11096392 40.79736328 96.89282227 C40.31509277 97.64877686 39.83282227 98.40473145 39.3359375 99.18359375 C38.90845215 99.84931396 38.4809668 100.51503418 38.04052734 101.20092773 C36.84566478 103.12762499 36.84566478 103.12762499 36 106 C36.71542969 106.11102051 37.43085937 106.22204102 38.16796875 106.33642578 C45.85271991 107.56792455 53.41490304 109.13976787 61 110.875 C77.59996881 114.61691296 94.26684675 117.915117 111 121 C111 123 111 123 109.46704102 124.57006836 C106.22164542 126.45114525 103.19011094 126.64958114 99.52734375 126.87890625 C98.78502502 126.93582642 98.0427063 126.99274658 97.27789307 127.0513916 C94.83186853 127.23513588 92.38496453 127.39915022 89.9375 127.5625 C88.21974609 127.68656513 86.50205448 127.81149574 84.78442383 127.93725586 C71.04637576 128.92630325 57.29679947 129.73901467 43.54296875 130.47265625 C29.3586182 131.25648242 15.17997281 132.14060771 1 133 C0.67 99.67 0.34 66.34 0 32 C-0.33 32 -0.66 32 -1 32 C-1.309375 31.05125 -1.61875 30.1025 -1.9375 29.125 C-2.87394742 26.13919592 -2.87394742 26.13919592 -4 24 C-4.66 24.99 -5.32 25.98 -6 27 C-5.28983288 21.04928928 -3.92812711 15.36216682 -2.4375 9.5625 C-2.08655273 8.17901367 -2.08655273 8.17901367 -1.72851562 6.76757812 C-1.15557041 4.51087556 -0.57932816 2.25507079 0 0 Z " fill="#FAD543" transform="translate(512,308)"/>
<path d="M0 0 C9.48821318 8.6510179 15.29330806 19.66533779 16.26171875 32.45703125 C16.72441316 47.94931649 11.73073791 62.70592083 1.03125 74.15625 C-10.25590111 84.40151024 -22.90134077 87.87412309 -37.7890625 87.31640625 C-49.58005124 86.58892154 -60.99769159 80.74010989 -69 72 C-71.67562029 68.49800022 -73.88907495 64.86585087 -76 61 C-76.51175781 60.07832031 -77.02351563 59.15664063 -77.55078125 58.20703125 C-82.95199016 46.6895238 -83.40771534 30.67209899 -79.375 18.625 C-78.26953125 16.22265625 -78.26953125 16.22265625 -77 14 C-76.52949219 13.17371094 -76.05898438 12.34742188 -75.57421875 11.49609375 C-72.90583316 7.2004756 -70.24327056 3.87044773 -66 1 C-66.32226562 1.97453125 -66.64453125 2.9490625 -66.9765625 3.953125 C-69.94934619 14.42363745 -69.26749662 27.46240258 -64 37 C-59.20897876 44.79471849 -53.15410866 49.81941557 -44.75 53.375 C-32.98034902 55.3366085 -21.80117025 54.14753122 -11.6875 47.4375 C-6.90885204 43.50507095 -3.93257747 38.37639204 -1 33 C-0.63648438 32.36449219 -0.27296875 31.72898437 0.1015625 31.07421875 C4.36901534 22.0806616 2.63095264 9.20833422 0 0 Z " fill="#FAC530" transform="translate(546,705)"/>
<path d="M0 0 C1.546875 0.14501953 1.546875 0.14501953 3.125 0.29296875 C5.83010502 0.78179887 7.60301515 1.53845883 10 2.8125 C6.22965234 3.91832949 2.45863228 5.02184947 -1.3125 6.125 C-2.36501953 6.43373047 -3.41753906 6.74246094 -4.50195312 7.06054688 C-15.7871539 10.35929787 -27.08931595 13.36099825 -38.54492188 16.00585938 C-39.42341797 16.21146484 -40.30191406 16.41707031 -41.20703125 16.62890625 C-41.9853833 16.80881104 -42.76373535 16.98871582 -43.56567383 17.17407227 C-45.35138126 17.64239289 -47.11704005 18.18896942 -48.86645508 18.77856445 C-52.19446856 19.87666629 -55.52139286 20.72469121 -58.9296875 21.5390625 C-59.56488312 21.69160492 -60.20007874 21.84414734 -60.85452271 22.00131226 C-62.86076526 22.48251754 -64.86785655 22.96006799 -66.875 23.4375 C-68.24484969 23.76538266 -69.61464195 24.09350538 -70.984375 24.421875 C-74.32235985 25.22111081 -77.66090872 26.01790171 -81 26.8125 C-75.71812245 35.98891663 -70.21451186 45.00779948 -64.60229492 53.98608398 C-63.54775437 55.67473047 -62.49841826 57.36662356 -61.44921875 59.05859375 C-60.83393311 60.04529053 -60.21864746 61.0319873 -59.5847168 62.04858398 C-58.12746313 64.59019064 -57.00654624 67.06603535 -56 69.8125 C-58.878418 68.4810435 -61.19196251 66.97951678 -63.6171875 64.94140625 C-64.30022949 64.37196289 -64.98327148 63.80251953 -65.68701172 63.21582031 C-66.40904785 62.60834961 -67.13108398 62.00087891 -67.875 61.375 C-73.48833584 56.70065299 -79.12692237 52.07051012 -84.875 47.5625 C-85.4510498 47.1094751 -86.02709961 46.6564502 -86.62060547 46.18969727 C-89.03353926 44.30316231 -91.44980917 42.51262722 -94 40.8125 C-94.11115646 41.40045853 -94.22231293 41.98841705 -94.33683777 42.5941925 C-95.62618388 49.24285956 -97.19094035 55.79384412 -98.86328125 62.35546875 C-99.42649583 64.5878746 -99.98964466 66.82029703 -100.55273438 69.05273438 C-101.4266729 72.50546006 -102.30180273 75.95787743 -103.1784668 79.40991211 C-108.00450759 98.43551791 -112.58325343 117.47739671 -116 136.8125 C-116.66 136.8125 -117.32 136.8125 -118 136.8125 C-118.02685412 134.50006208 -118.04632841 132.1875373 -118.0625 129.875 C-118.07410156 128.58722656 -118.08570313 127.29945313 -118.09765625 125.97265625 C-118 122.8125 -118 122.8125 -117 121.8125 C-116.89232174 120.37080537 -116.85319047 118.92392142 -116.84178162 117.47825623 C-116.8319928 116.54291046 -116.82220398 115.6075647 -116.81211853 114.64387512 C-116.80636307 113.60953842 -116.8006076 112.57520172 -116.79467773 111.50952148 C-116.78477814 110.42672913 -116.77487854 109.34393677 -116.76467896 108.22833252 C-116.73295588 104.63010891 -116.70826397 101.03187207 -116.68359375 97.43359375 C-116.66303355 94.94637193 -116.64203734 92.45915368 -116.62062073 89.97193909 C-116.57096517 84.08232112 -116.52572497 78.19268203 -116.48259836 72.30301291 C-116.42843101 64.94220579 -116.36745396 57.58145781 -116.30664062 50.22070312 C-116.19894122 37.08467561 -116.09733335 23.9486082 -116 10.8125 C-112.27306296 9.57018765 -108.64012936 9.39465493 -104.75 9.12890625 C-103.91698364 9.06915619 -103.08396729 9.00940613 -102.22570801 8.94784546 C-99.48408419 8.75268834 -96.74207952 8.56363796 -94 8.375 C-92.09309349 8.2410446 -90.1861925 8.10701062 -88.27929688 7.97290039 C-76.3574755 7.14235889 -64.43239197 6.40923142 -52.5 5.75 C-36.777492 4.87425427 -36.777492 4.87425427 -21.0625 3.875 C-19.99 3.8123999 -18.9175 3.7497998 -17.8125 3.68530273 C-16.83410156 3.61512939 -15.85570312 3.54495605 -14.84765625 3.47265625 C-14.00211182 3.41730713 -13.15656738 3.36195801 -12.28540039 3.30493164 C-7.09523589 2.18661503 -5.9073183 -0.62765257 0 0 Z " fill="#FABD26" transform="translate(629,430.1875)"/>
<path d="M0 0 C0.33 0 0.66 0 1 0 C1.05135384 55.05892288 1.09911586 110.11784802 1.12702942 165.17678833 C1.12744359 165.9916458 1.12785776 166.80650326 1.12828448 167.64605338 C1.13726315 185.35499569 1.14557371 203.06393826 1.15319599 220.7728812 C1.15693801 229.45731148 1.16082767 238.14174169 1.16479492 246.82617188 C1.1651872 247.6903782 1.16557948 248.55458453 1.16598364 249.44497893 C1.17876824 277.45763851 1.20130259 305.47027994 1.22889166 333.48292852 C1.25719094 362.26896855 1.27565668 391.05499852 1.28174497 419.84105223 C1.28260944 423.90665005 1.28358635 427.97224783 1.28463173 432.03784561 C1.284834 432.83801551 1.28503627 433.63818541 1.28524467 434.46260288 C1.28879016 447.34441038 1.30270526 460.22618683 1.3204961 473.10798166 C1.33815962 486.05775928 1.34490348 499.0075061 1.34050413 511.95729534 C1.33822199 519.65150012 1.34430923 527.34559219 1.36239263 535.03977663 C1.37497343 540.78513307 1.37188026 546.53039589 1.36269668 552.27575482 C1.36142752 554.60028113 1.3652471 556.92481691 1.37464955 559.24932455 C1.38668692 562.4087576 1.38020038 565.5676395 1.36914349 568.72706413 C1.37702453 569.62971001 1.38490557 570.53235588 1.39302543 571.46235466 C1.31348215 581.5195499 -1.4872122 590.26127568 -8 598 C-16.73506484 606.39990647 -27.66306106 606.43737184 -39.13755798 606.38095093 C-40.67262767 606.38441118 -42.20769487 606.38917821 -43.7427569 606.39513266 C-47.94457023 606.40762201 -52.14617837 606.4014817 -56.3479923 606.39217401 C-60.88591403 606.38537532 -65.42380093 606.39586885 -69.9617157 606.40411377 C-78.84528712 606.41744486 -87.72878245 606.41457604 -96.61235683 606.40587585 C-103.83364974 606.39909684 -111.05492133 606.39818353 -118.27621651 606.4014473 C-119.30454425 606.401907 -120.33287199 606.40236669 -121.39236118 606.40284032 C-123.48149407 606.40379952 -125.57062695 606.40477216 -127.65975983 606.4057581 C-147.24420705 606.41431028 -166.82861213 606.40448077 -186.41305245 606.388357 C-203.21020386 606.37495598 -220.00729307 606.37728047 -236.80444336 606.39111328 C-256.31793557 606.40717557 -275.83139085 606.41348421 -295.34488875 606.40427649 C-297.42658173 606.40332086 -299.50827473 606.40237775 -301.58996773 606.4014473 C-302.61415474 606.40098447 -303.63834175 606.40052164 -304.69356472 606.40004479 C-311.90402001 606.3974567 -319.11445183 606.40182204 -326.32490349 606.40888596 C-335.11522128 606.41730844 -343.90545872 606.41500514 -352.69576734 606.39904372 C-357.17902862 606.3911708 -361.66215603 606.3880527 -366.14541626 606.39799118 C-370.25299603 606.40695898 -374.36031839 606.40197102 -378.46787495 606.38605852 C-379.95027484 606.38271951 -381.43269666 606.38438493 -382.91508233 606.39168589 C-392.67525937 606.43605218 -402.66742006 606.33958592 -410.625 599.9375 C-411.60339844 599.17759766 -411.60339844 599.17759766 -412.6015625 598.40234375 C-414 597 -414 597 -414 595 C-412 593.6875 -412 593.6875 -409 593 C-406.77377949 594.04814273 -404.87196158 595.31465763 -402.8671875 596.73828125 C-399.24891628 599.18326369 -396.09134198 599.12672107 -391.84912777 599.13142776 C-389.9056838 599.13718948 -389.9056838 599.13718948 -387.92297834 599.1430676 C-386.47664188 599.1422873 -385.03030547 599.1414085 -383.58396912 599.14044189 C-382.05408038 599.14302472 -380.52419232 599.14603765 -378.99430519 599.1494453 C-374.77900054 599.15752851 -370.56371291 599.15930561 -366.34840143 599.16004276 C-361.80629351 599.16189108 -357.26419447 599.16943739 -352.72209167 599.17617798 C-342.78389952 599.18977222 -332.84571138 599.195788 -322.90751147 599.20018864 C-316.70268909 599.20294978 -310.49786828 599.20718696 -304.29304695 599.21169281 C-287.11649772 599.22388798 -269.93994973 599.2341861 -252.76339626 599.2375679 C-251.66356586 599.23778747 -250.56373546 599.23800703 -249.43057686 599.23823325 C-248.32809511 599.23845153 -247.22561335 599.23866981 -246.08972305 599.2388947 C-243.85563242 599.23933817 -241.6215418 599.23978473 -239.38745117 599.24023438 C-238.27926209 599.2404558 -237.171073 599.24067723 -236.02930243 599.24090537 C-218.07868606 599.2448521 -200.12811033 599.26230118 -182.17750966 599.2855939 C-163.75138257 599.30931074 -145.32527586 599.32176994 -126.89913327 599.32293582 C-116.55222905 599.32385251 -106.20537773 599.32960308 -95.85848808 599.34775543 C-87.04607656 599.36316104 -78.23373428 599.36827423 -69.42131185 599.36001733 C-64.92593345 599.35611218 -60.43069447 599.35703379 -55.93533325 599.37107468 C-51.81642363 599.38382188 -47.69775805 599.3826089 -43.57884873 599.37048396 C-42.09222693 599.36852836 -40.6055878 599.3715991 -39.11899035 599.38032833 C-29.84837567 599.43129905 -21.30766793 599.18460076 -13.1875 594.3125 C-6.60645842 587.3553989 -3.81548857 579.9786906 -3.5859375 570.4140625 C-3.56657135 569.71227875 -3.5472052 569.010495 -3.5272522 568.28744507 C-3.46792431 566.06675001 -3.42126083 563.84600177 -3.375 561.625 C-3.33677698 560.11065566 -3.29772278 558.59633206 -3.2578125 557.08203125 C-3.16226266 553.38821169 -3.07806063 549.6942353 -3 546 C-2.67 546 -2.34 546 -2 546 C-1.11625332 516.51313414 -0.83342685 487.04617567 -0.79939139 457.54709971 C-0.79122281 451.37938513 -0.77758464 445.21168199 -0.76467896 439.04397583 C-0.74314395 428.40969621 -0.72488535 417.77541589 -0.70907402 407.14112663 C-0.69251479 396.0134531 -0.6739849 384.88578557 -0.65294075 373.75811958 C-0.65162314 373.06083278 -0.65030554 372.36354599 -0.648948 371.64512928 C-0.64224399 368.10257386 -0.63550591 364.56001849 -0.62875474 361.01746316 C-0.58125501 336.06088301 -0.5379963 311.10429719 -0.49731445 286.14770508 C-0.45783393 261.93415923 -0.41638086 237.72061804 -0.37231445 213.50708008 C-0.37095192 212.75797442 -0.36958939 212.00886875 -0.36818558 211.23706292 C-0.35449775 203.7128103 -0.34077044 196.18855776 -0.32701423 188.66430526 C-0.29900334 173.34265595 -0.27125563 158.02100616 -0.2436676 142.69935608 C-0.2423994 141.99521306 -0.2411312 141.29107004 -0.23982458 140.56558936 C-0.15546601 93.7104005 -0.07725794 46.85520105 0 0 Z " fill="#222D40" transform="translate(724,221)"/>
<path d="M0 0 C0.33 0 0.66 0 1 0 C1 33.66 1 67.32 1 102 C-20 102 -20 102 -26 101 C-27.40013262 100.85807219 -28.80265073 100.73724629 -30.20678711 100.64282227 C-30.97876938 100.58929092 -31.75075165 100.53575958 -32.54612732 100.48060608 C-33.36492874 100.42642014 -34.18373016 100.37223419 -35.02734375 100.31640625 C-36.80794925 100.19215099 -38.58854799 100.06779881 -40.36914062 99.94335938 C-43.13961883 99.75310672 -45.91018522 99.56434011 -48.6809082 99.37768555 C-58.76733537 98.6940288 -68.77577245 97.90906569 -78.78173828 96.44360352 C-83.83616931 95.74690338 -88.91198042 95.36004608 -94 95 C-94 94.34 -94 93.68 -94 93 C-90.52098332 92.56130253 -87.04175766 92.12428181 -83.5625 91.6875 C-81.95955078 91.4855603 -81.95955078 91.4855603 -80.32421875 91.27954102 C-74.59266789 90.56100962 -68.85978866 89.86234928 -63.12109375 89.203125 C-62.01241943 89.07462158 -60.90374512 88.94611816 -59.76147461 88.8137207 C-57.63388237 88.56829667 -55.50580277 88.32705091 -53.37719727 88.09057617 C-47.75343986 87.43849944 -42.46765499 86.45921339 -37 85 C-35.06728469 84.63995989 -33.12978015 84.30424528 -31.1875 84 C-25.44299402 83.07795191 -19.72077199 82.05856805 -14 81 C-13.86722656 79.92878906 -13.73445313 78.85757813 -13.59765625 77.75390625 C-13.4194944 76.35674231 -13.24109681 74.95960841 -13.0625 73.5625 C-12.97548828 72.85544922 -12.88847656 72.14839844 -12.79882812 71.41992188 C-12.11328125 66.11328125 -12.11328125 66.11328125 -11 65 C-10.81445263 63.46260752 -10.67680798 61.91932417 -10.5625 60.375 C-10.16330547 56.02070887 -9.27938151 52.19352829 -8 48 C-4.03052743 33.37798804 -2.11609902 18.05679559 -1.2109375 2.94921875 C-1 1 -1 1 0 0 Z " fill="#F9E98E" transform="translate(512,339)"/>
<path d="M0 0 C0.99 0.33 1.98 0.66 3 1 C3.95141602 3.26904297 3.95141602 3.26904297 4.75390625 6.2421875 C5.05103516 7.30824219 5.34816406 8.37429687 5.65429688 9.47265625 C5.95400391 10.59542969 6.25371094 11.71820313 6.5625 12.875 C7.16336218 15.08198849 7.76863932 17.28778104 8.37890625 19.4921875 C8.77444702 20.96727783 8.77444702 20.96727783 9.17797852 22.47216797 C9.94009077 25.20285242 9.94009077 25.20285242 12 28 C14.34528581 29.04280232 14.34528581 29.04280232 17.12109375 29.7890625 C18.13880859 30.09070313 19.15652344 30.39234375 20.20507812 30.703125 C21.80512695 31.15945312 21.80512695 31.15945312 23.4375 31.625 C25.03174805 32.09292969 25.03174805 32.09292969 26.65820312 32.5703125 C28.63058085 33.14917604 30.604336 33.72338016 32.57983398 34.29150391 C34.39788403 34.82373242 36.20285898 35.40095299 38 36 C38 36.99 38 37.98 38 39 C37.23333008 39.23074219 36.46666016 39.46148437 35.67675781 39.69921875 C32.19060299 40.76798236 28.72106684 41.88325381 25.25 43 C23.44015625 43.54333984 23.44015625 43.54333984 21.59375 44.09765625 C14.236677 46.2833275 14.236677 46.2833275 9.33984375 51.7578125 C8.565549 53.83386487 8.565549 53.83386487 8 56 C7.75878418 56.72670898 7.51756836 57.45341797 7.26904297 58.20214844 C6.55600247 60.41349497 5.9239625 62.63362619 5.3125 64.875 C3.08952703 72.82094595 3.08952703 72.82094595 2 75 C1.34 75 0.68 75 0 75 C-0.22026855 74.23333008 -0.44053711 73.46666016 -0.66748047 72.67675781 C-1.69544885 69.18747903 -2.78418203 65.7201189 -3.875 62.25 C-4.22046875 61.0434375 -4.5659375 59.836875 -4.921875 58.59375 C-6.8598362 52.12390037 -6.8598362 52.12390037 -11.32983398 47.35400391 C-13.87477142 46.32530635 -16.32676567 45.6111471 -19 45 C-20.13050781 44.60554688 -21.26101563 44.21109375 -22.42578125 43.8046875 C-23.37839844 43.49789062 -24.33101562 43.19109375 -25.3125 42.875 C-28.93590657 41.70428653 -32.47828518 40.44974053 -36 39 C-35.81176758 37.11132812 -35.81176758 37.11132812 -35 35 C-32.83862305 33.96679688 -32.83862305 33.96679688 -30.01171875 33.21875 C-28.99529297 32.93386719 -27.97886719 32.64898437 -26.93164062 32.35546875 C-25.86107422 32.07316406 -24.79050781 31.79085937 -23.6875 31.5 C-21.58396441 30.93922788 -19.48351695 30.36671103 -17.38671875 29.78125 C-16.45045654 29.53439453 -15.51419434 29.28753906 -14.54956055 29.03320312 C-10.59010866 27.42864501 -8.58393749 25.37746989 -6.91918945 21.45043945 C-6.65323975 20.51417725 -6.38729004 19.57791504 -6.11328125 18.61328125 C-5.81486328 17.59298828 -5.51644531 16.57269531 -5.20898438 15.52148438 C-4.91314453 14.46251953 -4.61730469 13.40355469 -4.3125 12.3125 C-3.70690629 10.20371353 -3.09896271 8.09559998 -2.48828125 5.98828125 C-2.22571533 5.05540283 -1.96314941 4.12252441 -1.69262695 3.16137695 C-1 1 -1 1 0 0 Z " fill="#F7D44B" transform="translate(668,216)"/>
<path d="M0 0 C0.99 0 1.98 0 3 0 C3.31453125 1.19496094 3.6290625 2.38992187 3.953125 3.62109375 C6.5414735 17.30177385 6.5414735 17.30177385 13.7578125 28.27734375 C16.13901688 29.44158575 18.45989977 30.23654291 21 31 C22.1859375 31.35835937 23.371875 31.71671875 24.59375 32.0859375 C27.04381243 32.79969536 29.49937854 33.49492812 31.9609375 34.16796875 C33.98988271 34.72345118 36.00433935 35.33477978 38 36 C37.31787109 37.89306641 37.31787109 37.89306641 36 40 C33.72509766 41.00146484 33.72509766 41.00146484 30.9140625 41.7109375 C29.90085937 41.98679687 28.88765625 42.26265625 27.84375 42.546875 C25.70712242 43.09658986 23.56909959 43.64091135 21.4296875 44.1796875 C15.20407866 45.83167936 15.20407866 45.83167936 10.375 49.91015625 C9.16438886 52.63059208 8.13168353 55.18619091 7.375 58.0625 C6.42948098 61.48681212 5.33528838 64.70628866 4 68 C3.31320058 70.32748694 2.64238957 72.65986656 2 75 C1.34 75 0.68 75 0 75 C-0.39832031 73.7934375 -0.79664063 72.586875 -1.20703125 71.34375 C-1.74210565 69.72913954 -2.27726652 68.11455773 -2.8125 66.5 C-3.07353516 65.70851563 -3.33457031 64.91703125 -3.60351562 64.1015625 C-4.13191899 62.5098289 -4.66989977 60.92124353 -5.21728516 59.3359375 C-5.72762164 57.81288715 -6.19831456 56.27580189 -6.62255859 54.7265625 C-7.7733013 50.88665101 -8.54711179 49.26134823 -12.06640625 47.23046875 C-13.37119086 46.80034638 -14.6832825 46.39207546 -16 46 C-17.61602061 45.3992451 -19.22916357 44.79071086 -20.83984375 44.17578125 C-22.53836143 43.55277283 -24.23759239 42.93170589 -25.9375 42.3125 C-26.81212891 41.99216797 -27.68675781 41.67183594 -28.58789062 41.34179688 C-30.72464227 40.5594889 -32.86201546 39.77893083 -35 39 C-35 38.01 -35 37.02 -35 36 C-31.19767277 34.22828811 -27.61381835 32.82493147 -23.51953125 31.89453125 C-22.36227539 31.62479492 -22.36227539 31.62479492 -21.18164062 31.34960938 C-19.59513878 30.98993254 -18.00367318 30.65152309 -16.40820312 30.33398438 C-11.94206014 29.25235705 -11.94206014 29.25235705 -8.61499023 26.25146484 C-6.58639903 22.35378767 -5.364477 18.29091238 -4.4375 14 C-3.31205371 9.1271886 -1.87150405 4.63420051 0 0 Z " fill="#F5D44E" transform="translate(358,216)"/>
<path d="M0 0 C0.33 0.66 0.66 1.32 1 2 C0.69835937 2.68835938 0.39671875 3.37671875 0.0859375 4.0859375 C-3.16931579 12.82125747 -2.00010618 25.22047472 1.6796875 33.609375 C6.60275573 42.52333286 12.85090366 48.39845924 22.25 52.375 C34.01965098 54.3366085 45.19882975 53.14753122 55.3125 46.4375 C62.4290695 40.58115635 68.02975878 30.86155744 69.32885742 21.67431641 C69.51174731 19.2808763 69.61911505 16.89933478 69.6875 14.5 C69.72166016 13.67757812 69.75582031 12.85515625 69.79101562 12.0078125 C69.8724988 10.0056545 69.93794575 8.00285432 70 6 C71.76258433 9.07560262 72.31278359 11.53990472 72.5625 15.0625 C72.77865749 17.996066 73.06198991 20.18596973 74 23 C72.33718337 32.24729655 68.18476076 41.84163363 61 48 C60.46375 48.50273438 59.9275 49.00546875 59.375 49.5234375 C51.09994632 57.09658931 42.15364598 58.35668966 31.2421875 58.20703125 C20.16558505 57.49973013 9.02562999 54.02562999 1 46 C-2.41538144 45.41630557 -2.41538144 45.41630557 -6 46 C-8.26877535 48.41880929 -8.26877535 48.41880929 -10 51 C-10.99 51 -11.98 51 -13 51 C-16.00152713 40.57245002 -15.79193076 25.07681708 -11.2734375 15.22265625 C-8.06931604 9.63018659 -4.87538818 4.31284339 0 0 Z " fill="#F6D349" transform="translate(479,706)"/>
<path d="M0 0 C1.70824133 -0.02735618 3.41661405 -0.04655506 5.125 -0.0625 C6.07632812 -0.07410156 7.02765625 -0.08570313 8.0078125 -0.09765625 C11 0 11 0 13.50732422 0.47094727 C18.28605973 1.19480578 23.04970601 1.36308067 27.875 1.5625 C29.33679688 1.62727539 29.33679688 1.62727539 30.828125 1.69335938 C33.21862802 1.79882274 35.60922444 1.90094175 38 2 C38.02333012 16.45532811 38.04091332 30.91065331 38.05181217 45.36599636 C38.05697489 52.07741868 38.06401713 58.78882932 38.07543945 65.50024414 C38.08626565 71.97113736 38.09227626 78.44201842 38.09487724 84.91292 C38.09673198 87.38778945 38.1003535 89.8626582 38.10573006 92.33752251 C38.11293693 95.79070373 38.11399109 99.24383401 38.11352539 102.69702148 C38.11712067 103.73135818 38.12071594 104.76569489 38.12442017 105.83137512 C38.1230455 106.76672089 38.12167084 107.70206665 38.12025452 108.66575623 C38.12117631 109.4833866 38.1220981 110.30101698 38.12304783 111.14342403 C38 113 38 113 37 114 C36.63239269 116.32817964 36.29758419 118.6618385 36 121 C33.4593338 117.2043503 33.89759971 113.50893936 34.1640625 109.1484375 C34.23511081 107.55732435 34.30539637 105.966177 34.375 104.375 C34.4951642 101.89806695 34.6222947 99.42204949 34.76464844 96.94628906 C35.41191033 85.30029958 34.39852632 75.2500184 31.4826355 63.96481323 C30.58274809 60.3013639 30.04136348 56.58434654 29.45654297 52.86083984 C28.59982519 47.49238055 27.5635805 42.15557005 26.5625 36.8125 C24.65015834 26.55141299 22.78412967 16.28412954 21 6 C13.99370876 4.1150587 7.23589973 2.60299164 0 2 C0 1.34 0 0.68 0 0 Z " fill="#FCDA41" transform="translate(475,439)"/>
<path d="M0 0 C0.66 0 1.32 0 2 0 C2.60416667 1.8125 3.20833333 3.625 3.8125 5.4375 C4.19148437 6.52933594 4.57046875 7.62117187 4.9609375 8.74609375 C6 12 6 12 6.4765625 14.66015625 C6.98774511 17.2550578 7.41874161 18.8659808 9 21 C13.18677611 23.02697712 17.47084285 24.01587342 22 25 C23.44109252 25.40406646 24.87968217 25.81750673 26.3125 26.25 C27.199375 26.4975 28.08625 26.745 29 27 C29 27.66 29 28.32 29 29 C26.86366578 29.71211141 24.72718959 30.42374042 22.58984375 31.1328125 C20.8913547 31.70153734 19.19588086 32.27936533 17.50390625 32.8671875 C16.71886719 33.13789062 15.93382812 33.40859375 15.125 33.6875 C14.40570312 33.93886719 13.68640625 34.19023438 12.9453125 34.44921875 C11 35 11 35 8 35 C7.82984375 35.66644531 7.6596875 36.33289063 7.484375 37.01953125 C5.69190972 43.83661993 3.50936426 50.41451106 1 57 C-1.53527908 53.19708138 -3.12893048 50.05006353 -4 45.5625 C-4.66226045 42.16250214 -5.43513219 39.10529411 -7 36 C-9.06239111 34.69005561 -9.06239111 34.69005561 -11.5703125 33.98046875 C-12.91416016 33.5309082 -12.91416016 33.5309082 -14.28515625 33.07226562 C-15.22230469 32.78029297 -16.15945313 32.48832031 -17.125 32.1875 C-18.06988281 31.87619141 -19.01476562 31.56488281 -19.98828125 31.24414062 C-22.32043784 30.47853366 -24.65695066 29.73144991 -27 29 C-27 28.34 -27 27.68 -27 27 C-26.12263184 26.81377075 -26.12263184 26.81377075 -25.22753906 26.6237793 C-13.97840057 24.58755064 -13.97840057 24.58755064 -4.88671875 18.50390625 C-3.9013102 15.64500491 -3.3989989 12.99450687 -3 10 C-2.44470399 8.09576573 -1.86278445 6.19901982 -1.25 4.3125 C-0.82998916 2.87597355 -0.41199091 1.43884706 0 0 Z " fill="#F5D149" transform="translate(612,577)"/>
<path d="M0 0 C2.1972221 2.1972221 2.43456667 3.08581111 3.11328125 6.02734375 C3.4081543 7.21553711 3.4081543 7.21553711 3.70898438 8.42773438 C4.10980705 10.09458595 4.50052412 11.76390155 4.88085938 13.43554688 C6.05642588 18.2395206 6.05642588 18.2395206 9.1796875 21.9296875 C12.67266602 23.25527768 16.18938279 24.29645586 19.8125 25.1875 C20.50537109 25.36474609 21.19824219 25.54199219 21.91210938 25.72460938 C23.60625944 26.15690974 25.30289268 26.57945894 27 27 C27 27.66 27 28.32 27 29 C26.05898438 29.25394531 25.11796875 29.50789062 24.1484375 29.76953125 C22.90320313 30.11371094 21.65796875 30.45789063 20.375 30.8125 C19.14523437 31.14894531 17.91546875 31.48539063 16.6484375 31.83203125 C15.44445312 32.21746094 14.24046875 32.60289062 13 33 C11.9275 33.3403125 10.855 33.680625 9.75 34.03125 C5.55759364 37.03263183 4.92053982 40.84869418 3.625 45.6875 C3.36589844 46.58017578 3.10679687 47.47285156 2.83984375 48.39257812 C2.20530697 50.58995549 1.593136 52.79115647 1 55 C0.34 55 -0.32 55 -1 55 C-1.13462646 54.44014404 -1.26925293 53.88028809 -1.40795898 53.3034668 C-2.04509405 50.75307516 -2.7402595 48.22208816 -3.4375 45.6875 C-3.64826172 44.80642578 -3.85902344 43.92535156 -4.07617188 43.01757812 C-5.40453464 38.10482684 -5.40453464 38.10482684 -9.01782227 34.80200195 C-11.33283168 34.03486805 -13.61269646 33.49137484 -16 33 C-18.02423339 32.28032606 -20.0457307 31.55283303 -22.0625 30.8125 C-23.00222656 30.46832031 -23.94195312 30.12414062 -24.91015625 29.76953125 C-25.94462891 29.38861328 -25.94462891 29.38861328 -27 29 C-27 28.01 -27 27.02 -27 26 C-23.87605609 25.16267257 -20.75068026 24.33082018 -17.625 23.5 C-16.73554688 23.26152344 -15.84609375 23.02304687 -14.9296875 22.77734375 C-14.07890625 22.55175781 -13.228125 22.32617188 -12.3515625 22.09375 C-11.56604004 21.88427734 -10.78051758 21.67480469 -9.97119141 21.45898438 C-8 21 -8 21 -6 21 C-5.87625 20.14921875 -5.7525 19.2984375 -5.625 18.421875 C-4.98542199 14.9201854 -4.06399061 11.6453818 -3 8.25 C-2.649375 7.12078125 -2.29875 5.9915625 -1.9375 4.828125 C-1 2 -1 2 0 0 Z " fill="#F5D14A" transform="translate(412,537)"/>
<path d="M0 0 C0 3.48996256 -0.65300539 4.27642556 -2.625 7.0625 C-5.97329485 11.91988549 -9.00015391 16.92213552 -12 22 C-15.81995612 28.46607156 -19.78125323 34.78624346 -24 41 C-24.66 41.99 -25.32 42.98 -26 44 C-33.625 42.25 -33.625 42.25 -37 40 C-38.43570308 36.92720562 -38.67774392 34.31628898 -38 31 C-35.14562088 27.38845925 -31.66577575 24.75445161 -28 22 C-27.30390625 21.45085937 -26.6078125 20.90171875 -25.890625 20.3359375 C-24.50390079 19.24483279 -23.10742966 18.16603911 -21.703125 17.09765625 C-17.23361346 13.62926362 -12.87109931 10.02826105 -8.49560547 6.44238281 C-7.82932129 5.89807617 -7.16303711 5.35376953 -6.4765625 4.79296875 C-5.87924316 4.3033667 -5.28192383 3.81376465 -4.66650391 3.30932617 C-3.16700884 2.13121424 -1.58667282 1.05778188 0 0 Z " fill="#F7C530" transform="translate(573,370)"/>
<path d="M0 0 C4.88162605 3.54157184 9.5439697 7.26661817 14.125 11.1875 C18.87846691 15.2512537 23.70502858 19.20176949 28.625 23.0625 C29.21684082 23.52744873 29.80868164 23.99239746 30.41845703 24.47143555 C32.89841746 26.40712848 35.38095183 28.25396789 38 30 C37.45587277 34.57066877 36.73304586 38.24206194 34 42 C31.03723351 43.10511716 28.1194843 43.56681231 25 44 C24.48050781 42.91332031 23.96101563 41.82664062 23.42578125 40.70703125 C20.6594901 35.17809681 17.42307792 29.95093745 14.1875 24.6875 C13.59646484 23.71876953 13.00542969 22.75003906 12.39648438 21.75195312 C8.7788259 15.83824533 5.07892899 9.98886052 1.27856445 4.19067383 C0 2 0 2 0 0 Z " fill="#F6C939" transform="translate(452,370)"/>
<path d="M0 0 C1.76258433 3.07560262 2.31278359 5.53990472 2.5625 9.0625 C2.77865749 11.996066 3.06198991 14.18596973 4 17 C2.33718337 26.24729655 -1.81523924 35.84163363 -9 42 C-9.53625 42.50273438 -10.0725 43.00546875 -10.625 43.5234375 C-19.20096688 51.37197862 -28.11560256 52.10435432 -39.328125 52.1328125 C-42 52 -42 52 -45 51 C-45.495 49.515 -45.495 49.515 -46 48 C-45.05640625 47.97421875 -44.1128125 47.9484375 -43.140625 47.921875 C-31.43470894 47.40474618 -19.52235776 45.90806792 -11 37 C-4.17048914 28.00872865 -0.63276345 19.7366719 -0.3125 8.5 C-0.27833984 7.67757812 -0.24417969 6.85515625 -0.20898438 6.0078125 C-0.1275012 4.0056545 -0.06205425 2.00285432 0 0 Z " fill="#F0D553" transform="translate(549,712)"/>
<path d="M0 0 C0.66 0 1.32 0 2 0 C2.350625 1.093125 2.70125 2.18625 3.0625 3.3125 C4.37683541 6.46435287 5.53564713 7.62316459 8.6875 8.9375 C9.780625 9.288125 10.87375 9.63875 12 10 C11 12 11 12 8.125 13.1875 C3.95837151 15.60414452 3.51778156 17.53097652 2 22 C1.01 22 0.02 22 -1 22 C-1.350625 20.9275 -1.70125 19.855 -2.0625 18.75 C-3.93898874 14.25917985 -6.70074169 13.02795203 -11 11 C-9 8 -9 8 -6.625 7.1875 C-3.09933251 5.59255518 -2.02624941 3.21405079 0 0 Z " fill="#F0C137" transform="translate(337,318)"/>
<path d="M0 0 C2 1 2 1 3.25 3.9375 C4.74725985 7.26948869 4.74725985 7.26948869 8.1875 8.375 C9.115625 8.58125 10.04375 8.7875 11 9 C11 9.99 11 10.98 11 12 C10.05125 12.45375 9.1025 12.9075 8.125 13.375 C4.36411824 15.33065852 3.31311357 16.13024008 1.875 20.125 C1.58625 21.07375 1.2975 22.0225 1 23 C0.34 23 -0.32 23 -1 23 C-1.350625 21.741875 -1.70125 20.48375 -2.0625 19.1875 C-2.9853858 16.65628409 -3.51276061 15.33240554 -5.7578125 13.80078125 C-7.88680095 12.87959475 -7.88680095 12.87959475 -11 12 C-10.67 11.01 -10.34 10.02 -10 9 C-9.071875 8.7525 -8.14375 8.505 -7.1875 8.25 C-2.70226323 6.49108362 -2.05216248 4.2621836 0 0 Z " fill="#EEBB39" transform="translate(605,321)"/>
<path d="M0 0 C0.61875 0.86625 0.61875 0.86625 1.25 1.75 C4.0915028 5.40336075 6.70370199 8.15872942 11 10 C11 10.66 11 11.32 11 12 C10.0925 12.350625 9.185 12.70125 8.25 13.0625 C4.08142471 15.54761219 3.10847374 17.70195737 1 22 C0.01 21.67 -0.98 21.34 -2 21 C-2.2475 20.236875 -2.495 19.47375 -2.75 18.6875 C-4.58593958 14.7402299 -7.15582557 13.92208722 -11 12 C-10.67 11.01 -10.34 10.02 -10 9 C-9.071875 8.7525 -8.14375 8.505 -7.1875 8.25 C-2.70226323 6.49108362 -2.05216248 4.2621836 0 0 Z " fill="#EDD569" transform="translate(634,507)"/>
<path d="M0 0 C0.66 0 1.32 0 2 0 C2.5775 1.11375 3.155 2.2275 3.75 3.375 C5.42260202 6.33192143 6.64982242 7.92315721 10 9 C9 12 9 12 6.5625 13.875 C3.82297246 16.14680333 3.0234817 17.65042354 2 21 C1.01 20.67 0.02 20.34 -1 20 C-1.433125 19.05125 -1.86625 18.1025 -2.3125 17.125 C-4.34013811 13.37011461 -6.1107724 12.55569104 -10 11 C-10 10.34 -10 9.68 -10 9 C-8.3603125 8.443125 -8.3603125 8.443125 -6.6875 7.875 C-3.45411511 6.5201201 -3.01423545 6.02341962 -1.0625 2.8125 C-0.711875 1.884375 -0.36125 0.95625 0 0 Z " fill="#EAC037" transform="translate(698,294)"/>
<path d="M0 0 C0.33 0 0.66 0 1 0 C1 33.66 1 67.32 1 102 C-20 102 -20 102 -26 101 C-26 100.67 -26 100.34 -26 100 C-13.13 100.495 -13.13 100.495 0 101 C-0.33 76.25 -0.66 51.5 -1 26 C-1.66 26.33 -2.32 26.66 -3 27 C-3.10124034 21.10781216 -2.7381867 15.41365931 -2.0625 9.5625 C-1.97548828 8.74845703 -1.88847656 7.93441406 -1.79882812 7.09570312 C-1.12676222 1.12676222 -1.12676222 1.12676222 0 0 Z " fill="#FAE570" transform="translate(512,339)"/>
<path d="M0 0 C0.33 0 0.66 0 1 0 C1 25.41 1 50.82 1 77 C0.01 77.495 0.01 77.495 -1 78 C-3.12262474 73.69317268 -3.16626619 70.27328146 -2.9765625 65.51171875 C-2.95153656 64.80852005 -2.92651062 64.10532135 -2.90072632 63.3808136 C-2.81898054 61.14918498 -2.72221983 58.91850267 -2.625 56.6875 C-2.56671376 55.16865763 -2.50941152 53.64977716 -2.453125 52.13085938 C-2.31347154 48.4200637 -2.16035214 44.70996546 -2 41 C-1.67 41 -1.34 41 -1 41 C-0.67 27.47 -0.34 13.94 0 0 Z " fill="#020C29" transform="translate(723,726)"/>
<path d="M0 0 C4.00248815 4.00248815 3.9401253 11.23369642 4.125 16.6875 C4.08375 17.450625 4.0425 18.21375 4 19 C3.34 19.33 2.68 19.66 2 20 C1.60786962 22.55491823 1.60786962 22.55491823 1.5 25.5 C1.34375 28.53125 1.34375 28.53125 1 31 C0.34 31.33 -0.32 31.66 -1 32 C-1.309375 31.05125 -1.61875 30.1025 -1.9375 29.125 C-2.87394742 26.13919592 -2.87394742 26.13919592 -4 24 C-4.66 24.99 -5.32 25.98 -6 27 C-5.28983288 21.04928928 -3.92812711 15.36216682 -2.4375 9.5625 C-2.08655273 8.17901367 -2.08655273 8.17901367 -1.72851562 6.76757812 C-1.15557041 4.51087556 -0.57932816 2.25507079 0 0 Z " fill="#F2D94D" transform="translate(512,308)"/>
<path d="M0 0 C0 0.33 0 0.66 0 1 C-7.49296333 1.57123793 -14.98605821 2.14072544 -22.47924805 2.70898438 C-25.02940907 2.90258936 -27.57953947 3.09659808 -30.12963867 3.29101562 C-33.79077344 3.5700677 -37.45201513 3.84767735 -41.11328125 4.125 C-42.2571077 4.21249512 -43.40093414 4.29999023 -44.579422 4.39013672 C-46.17073189 4.51026123 -46.17073189 4.51026123 -47.79418945 4.6328125 C-49.19650566 4.73940186 -49.19650566 4.73940186 -50.62715149 4.84814453 C-52.41515841 4.96257182 -54.20833531 5 -56 5 C-56 4.01 -56 3.02 -56 2 C-37.31128025 0.71218572 -18.74519877 -0.34047788 0 0 Z " fill="#FCE055" transform="translate(569,436)"/>
<path d="M0 0 C0.66 0 1.32 0 2 0 C2.2475 0.61875 2.495 1.2375 2.75 1.875 C4.20628639 4.35068687 5.37812506 4.95125002 8 6 C8 6.99 8 7.98 8 9 C7.401875 9.061875 6.80375 9.12375 6.1875 9.1875 C3.12856542 10.3236757 2.44958901 12.17330142 1 15 C-1 14 -1 14 -1.9375 12.0625 C-2.95345922 9.68028507 -2.95345922 9.68028507 -6 8 C-6 7.01 -6 6.02 -6 5 C-5.38125 4.731875 -4.7625 4.46375 -4.125 4.1875 C-1.7004767 3.04443152 -1.7004767 3.04443152 0 0 Z " fill="#EAD573" transform="translate(579,231)"/>
<path d="M0 0 C2.61746438 0.54365491 4.53920014 1.26021519 6.83984375 2.58984375 C4.27997496 3.43210375 1.7174536 4.26382926 -0.84765625 5.08984375 C-1.92950195 5.44755859 -1.92950195 5.44755859 -3.03320312 5.8125 C-6.85423282 7.03383369 -10.09457681 7.91059952 -14.16015625 7.58984375 C-14.16015625 4.58984375 -14.16015625 4.58984375 -12.41015625 1.83984375 C-8.02666284 -1.19488246 -5.15174215 -0.57819048 0 0 Z " fill="#F6CA2D" transform="translate(632.16015625,430.41015625)"/>
<path d="M0 0 C1.32 0.66 2.64 1.32 4 2 C4 2.99 4 3.98 4 5 C4.99 5 5.98 5 7 5 C7 7 7 7 4.6875 9.625 C2 12 2 12 -1 12 C-1.33 11.01 -1.66 10.02 -2 9 C-2.99 8.67 -3.98 8.34 -5 8 C-4.45773019 4.20411134 -2.79872437 2.52788007 0 0 Z " fill="#E9D36B" transform="translate(410,222)"/>
<path d="M0 0 C-0.66 0 -1.32 0 -2 0 C-1.67 0.99 -1.34 1.98 -1 3 C2.00847418 4.22520264 2.00847418 4.22520264 5 5 C5 5.66 5 6.32 5 7 C-1.68993219 6.46048934 -7.63460728 5.11293829 -14 3 C-11.87033995 0.87033995 -10.95931796 0.52375338 -8.125 -0.1875 C-7.44695312 -0.36667969 -6.76890625 -0.54585938 -6.0703125 -0.73046875 C-3.77181444 -1.02970718 -2.19449036 -0.69377386 0 0 Z " fill="#DCBD35" transform="translate(400,430)"/>
<path d="M0 0 C1.6875 1.4375 1.6875 1.4375 3 3 C3 5 3 5 1 7.125 C0.34 7.74375 -0.32 8.3625 -1 9 C-3.46800047 7.84826645 -5.04783565 6.95216435 -7 5 C-7 3.68 -7 2.36 -7 1 C-3.375 -1.125 -3.375 -1.125 0 0 Z " fill="#E8D574" transform="translate(652,654)"/>
<path d="M0 0 C2.46800047 1.15173355 4.04783565 2.04783565 6 4 C6 7 6 7 4.5 8.6875 C4.005 9.120625 3.51 9.55375 3 10 C1 9 -1 8 -3 7 C-2.38722388 4.03824877 -1.74627478 2.61941217 0 0 Z " fill="#F1DE71" transform="translate(369,512)"/>
<path d="M0 0 C0.66 0 1.32 0 2 0 C3.38938077 1.96147874 4.7260411 3.96166576 6 6 C4.1875 8 4.1875 8 2 10 C1.01 10 0.02 10 -1 10 C-2.75 8.1875 -2.75 8.1875 -4 6 C-3.67 5.01 -3.34 4.02 -3 3 C-2.34 3 -1.68 3 -1 3 C-0.67 2.01 -0.34 1.02 0 0 Z " fill="#EBD469" transform="translate(666,482)"/>
<path d="M0 0 C1.32963842 3.98891525 0.38405007 7.18462836 -0.4375 11.1875 C-0.58509766 11.93708984 -0.73269531 12.68667969 -0.88476562 13.45898438 C-1.24972791 15.30734174 -1.62397411 17.15386161 -2 19 C-2.66 19 -3.32 19 -4 19 C-4.05398987 16.72942623 -4.09278742 14.45848712 -4.125 12.1875 C-4.14820313 10.92292969 -4.17140625 9.65835938 -4.1953125 8.35546875 C-4 5 -4 5 -2 2 C-1.34 2 -0.68 2 0 2 C0 1.34 0 0.68 0 0 Z " fill="#DEB62F" transform="translate(515,548)"/>
<path d="M0 0 C1.6875 1.5 1.6875 1.5 3 3 C2.67 3.99 2.34 4.98 2 6 C-0.5625 7.1875 -0.5625 7.1875 -3 8 C-4.32 6.68 -5.64 5.36 -7 4 C-3.375 0 -3.375 0 0 0 Z " fill="#EBD768" transform="translate(524,656)"/>
<path d="M0 0 C-0.99 0.66 -1.98 1.32 -3 2 C-1.68 2.66 -0.36 3.32 1 4 C-5.27 3.67 -11.54 3.34 -18 3 C-18 2.34 -18 1.68 -18 1 C-11.93303301 0.22959149 -6.11485027 -0.09706112 0 0 Z " fill="#FBE66E" transform="translate(436,431)"/>
<path d="M0 0 C2.51699845 2.51699845 3.10964078 4.57554146 4 8 C3.625 10.375 3.625 10.375 3 12 C3 11.01 3 10.02 3 9 C1.02 9.66 -0.96 10.32 -3 11 C-2.53199289 6.94393835 -2.12046792 3.53411321 0 0 Z " fill="#CBB248" transform="translate(412,537)"/>
<path d="M0 0 C0.33 0 0.66 0 1 0 C1.05789006 3.45826342 1.09355821 6.91640293 1.125 10.375 C1.14175781 11.35984375 1.15851563 12.3446875 1.17578125 13.359375 C1.18222656 14.30039062 1.18867188 15.24140625 1.1953125 16.2109375 C1.20578613 17.08024902 1.21625977 17.94956055 1.22705078 18.84521484 C1 21 1 21 -1 23 C-1 21.35 -1 19.7 -1 18 C-1.66 18 -2.32 18 -3 18 C-2.67 16.02 -2.34 14.04 -2 12 C-1.67 12 -1.34 12 -1 12 C-0.67 8.04 -0.34 4.08 0 0 Z " fill="#23303D" transform="translate(464,734)"/>
<path d="M0 0 C1.45823212 -0.0270043 2.91660675 -0.04639787 4.375 -0.0625 C5.18710937 -0.07410156 5.99921875 -0.08570313 6.8359375 -0.09765625 C9 0 9 0 11 1 C10.67 1.66 10.34 2.32 10 3 C8.9275 2.896875 7.855 2.79375 6.75 2.6875 C2.86024403 2.5867332 2.86024403 2.5867332 0.6875 5.5 C0.130625 6.325 -0.42625 7.15 -1 8 C-1.66 8 -2.32 8 -3 8 C-3 7.01 -3 6.02 -3 5 C-2.34 4.67 -1.68 4.34 -1 4 C-0.34786708 1.97536745 -0.34786708 1.97536745 0 0 Z " fill="#FDD13D" transform="translate(470,749)"/>
<path d="M0 0 C1.76258433 3.07560262 2.31278359 5.53990472 2.5625 9.0625 C2.77865749 11.996066 3.06198991 14.18596973 4 17 C3.34 17.99 2.68 18.98 2 20 C0.19320413 15.37630977 -0.21839082 11.57471347 -0.125 6.625 C-0.10695313 5.37976563 -0.08890625 4.13453125 -0.0703125 2.8515625 C-0.04710937 1.91054688 -0.02390625 0.96953125 0 0 Z " fill="#F6D749" transform="translate(549,712)"/>
<path d="M0 0 C3.63559661 3.43361902 6.36113346 6.7973607 9 11 C6.625 11.125 6.625 11.125 4 11 C1.6870518 8.6870518 1.50419025 7.52095125 0.875 4.375 C0.70742188 3.55773437 0.53984375 2.74046875 0.3671875 1.8984375 C0.24601563 1.27195312 0.12484375 0.64546875 0 0 Z " fill="#DDB938" transform="translate(546,705)"/>
<path d="M0 0 C0.33 1.32 0.66 2.64 1 4 C1.66 4.33 2.32 4.66 3 5 C0.36 7.31 -2.28 9.62 -5 12 C-5.66 11.67 -6.32 11.34 -7 11 C-4.69 7.37 -2.38 3.74 0 0 Z " fill="#DDB124" transform="translate(457,489)"/>
<path d="M0 0 C1.58971965 2.38457948 2.86741593 4.6304124 4.125 7.1875 C4.47820312 7.90292969 4.83140625 8.61835937 5.1953125 9.35546875 C5.46085937 9.89816406 5.72640625 10.44085937 6 11 C5.34 11 4.68 11 4 11 C4 10.34 4 9.68 4 9 C1.5 10 1.5 10 0 14 C0 9.38 0 4.76 0 0 Z " fill="#EAE7DE" transform="translate(307,752)"/>
<path d="M0 0 C1.5625 1.0625 1.5625 1.0625 3 3 C2.6875 6.6875 2.6875 6.6875 2 10 C0.68 9.34 -0.64 8.68 -2 8 C-1.7525 7.1028125 -1.7525 7.1028125 -1.5 6.1875 C-0.8885876 3.88655664 -0.8885876 3.88655664 -1 1 C-0.67 0.67 -0.34 0.34 0 0 Z " fill="#61676D" transform="translate(564,680)"/>
<path d="M0 0 C2.51083114 1.25541557 2.87125446 2.50063488 4 5 C4.33 5 4.66 5 5 5 C5.25 11.625 5.25 11.625 3 15 C2.01 10.05 1.02 5.1 0 0 Z " fill="#E0BD3E" transform="translate(505,537)"/>
<path d="M0 0 C0.66 0.33 1.32 0.66 2 1 C0.85805571 3.80063432 -0.32801232 6.47332213 -2 9 C-4.75 10 -4.75 10 -7 10 C-6.34 9.67 -5.68 9.34 -5 9 C-4.87625 8.236875 -4.7525 7.47375 -4.625 6.6875 C-3.86156285 3.40472026 -2.50142651 2.1786618 0 0 Z " fill="#252C36" transform="translate(705,306)"/>
<path d="M0 0 C2.64 0.33 5.28 0.66 8 1 C5.6870518 3.3129482 4.52095125 3.49580975 1.375 4.125 C0.55773437 4.29257812 -0.25953125 4.46015625 -1.1015625 4.6328125 C-2.04128906 4.81457031 -2.04128906 4.81457031 -3 5 C-2.01 3.35 -1.02 1.7 0 0 Z " fill="#D8AA20" transform="translate(631,431)"/>
<path d="M0 0 C-0.66 1.32 -1.32 2.64 -2 4 C-4.97 3.505 -4.97 3.505 -8 3 C-8 2.01 -8 1.02 -8 0 C-4.94736336 -0.98120464 -3.05263664 -0.98120464 0 0 Z " fill="#D5BB49" transform="translate(393,563)"/>
<path d="M0 0 C0.66 0.33 1.32 0.66 2 1 C-1.63 4.3 -5.26 7.6 -9 11 C-9.99 10.67 -10.98 10.34 -12 10 C-8.04 6.7 -4.08 3.4 0 0 Z " fill="#293337" transform="translate(482,475)"/>
<path d="M0 0 C0 3.99904969 -1.72586967 5.80200422 -4 9 C-4.33 8.34 -4.66 7.68 -5 7 C-6.65 7.66 -8.3 8.32 -10 9 C-6.83047153 5.73991357 -3.60062011 2.77762123 0 0 Z " fill="#D6B82D" transform="translate(573,370)"/>
<path d="M0 0 C0.66 0 1.32 0 2 0 C2.1799928 5.21979128 1.97094808 9.07262981 0 14 C-0.33 14 -0.66 14 -1 14 C-1.08333357 9.1666528 -0.95261487 4.76307437 0 0 Z " fill="#F9E773" transform="translate(510,352)"/>
<path d="M0 0 C0.99 0.33 1.98 0.66 3 1 C2.38461538 7.52307692 2.38461538 7.52307692 0.4375 9.9375 C-0.036875 10.288125 -0.51125 10.63875 -1 11 C-1.125 3.375 -1.125 3.375 0 0 Z " fill="#26303F" transform="translate(478,710)"/>
<path d="M0 0 C2.1640625 -0.29296875 2.1640625 -0.29296875 4.625 -0.1875 C5.44226563 -0.16042969 6.25953125 -0.13335937 7.1015625 -0.10546875 C8.04128906 -0.05326172 8.04128906 -0.05326172 9 0 C8.67 0.66 8.34 1.32 8 2 C5.71484375 2.4140625 5.71484375 2.4140625 2.9375 2.625 C2.01839844 2.69976562 1.09929688 2.77453125 0.15234375 2.8515625 C-0.55792969 2.90054687 -1.26820313 2.94953125 -2 3 C-1.34 2.01 -0.68 1.02 0 0 Z " fill="#ECB51E" transform="translate(569,448)"/>
<path d="M0 0 C2.46800047 1.15173355 4.04783565 2.04783565 6 4 C5.67 4.99 5.34 5.98 5 7 C4.67 6.01 4.34 5.02 4 4 C2.02 4 0.04 4 -2 4 C-1.34 2.68 -0.68 1.36 0 0 Z " fill="#ECD467" transform="translate(369,512)"/>
<path d="M0 0 C2.76276177 0.52268466 5.3260876 1.10869587 8 2 C7.67 2.99 7.34 3.98 7 5 C4.03824877 4.38722388 2.61941217 3.74627478 0 2 C0 1.34 0 0.68 0 0 Z " fill="#ECCE44" transform="translate(388,250)"/>
<path d="M0 0 C0.66 0 1.32 0 2 0 C2 1.32 2 2.64 2 4 C2.99 4.33 3.98 4.66 5 5 C2.36 5.66 -0.28 6.32 -3 7 C-2.67 5.68 -2.34 4.36 -2 3 C-1.34 3 -0.68 3 0 3 C0 2.01 0 1.02 0 0 Z " fill="#2B3546" transform="translate(635,245)"/>
<path d="M0 0 C1.32 0.66 2.64 1.32 4 2 C3.67 3.65 3.34 5.3 3 7 C2.67 6.34 2.34 5.68 2 5 C0.68 5.33 -0.64 5.66 -2 6 C-1.34 4.02 -0.68 2.04 0 0 Z " fill="#1D2941" transform="translate(720,801)"/>
<path d="M0 0 C0 0.66 0 1.32 0 2 C-2.31 2.33 -4.62 2.66 -7 3 C-7 2.01 -7 1.02 -7 0 C-4.3333581 -1.33332095 -2.83319697 -0.67102033 0 0 Z " fill="#EAC73C" transform="translate(641,604)"/>
<path d="M0 0 C2.72426311 2.35277269 3.8141763 4.62496331 5 8 C2.53199953 6.84826645 0.95216435 5.95216435 -1 4 C-0.625 1.875 -0.625 1.875 0 0 Z " fill="#E5BF28" transform="translate(568,492)"/>
<path d="M0 0 C0.33 0 0.66 0 1 0 C1.25532751 3.06393013 1.21861333 4.63233212 -0.375 7.3125 C-1.179375 8.1478125 -1.179375 8.1478125 -2 9 C-2.66 9 -3.32 9 -4 9 C-2.94124926 5.59687262 -1.99097846 2.98646769 0 0 Z " fill="#E5C444" transform="translate(472,714)"/>
<path d="M0 0 C1.32 0.66 2.64 1.32 4 2 C3.34 3.32 2.68 4.64 2 6 C1.01 5.67 0.02 5.34 -1 5 C-0.67 3.35 -0.34 1.7 0 0 Z " fill="#D3C982" transform="translate(410,480)"/>
<path d="M0 0 C2.64 0 5.28 0 8 0 C8 0.66 8 1.32 8 2 C3.545 2.495 3.545 2.495 -1 3 C-0.67 2.01 -0.34 1.02 0 0 Z " fill="#DBA921" transform="translate(601,440)"/>
<path d="M0 0 C0.33 0 0.66 0 1 0 C1.22223194 2.74086056 1.34781139 4.43963721 -0.125 6.8125 C-2.77535957 8.49106106 -4.93246424 8.20450238 -8 8 C-7.13375 7.690625 -7.13375 7.690625 -6.25 7.375 C-3.19664942 5.50906354 -1.88605645 2.99167574 0 0 Z " fill="#DBB73B" transform="translate(336,319)"/>
<path d="M0 0 C1.32 0.66 2.64 1.32 4 2 C3.34 3.32 2.68 4.64 2 6 C1.01 5.67 0.02 5.34 -1 5 C-0.67 3.35 -0.34 1.7 0 0 Z " fill="#ECE199" transform="translate(459,274)"/>
<path d="M0 0 C0.33 0.66 0.66 1.32 1 2 C0.06553465 4.03144641 -0.93224776 6.03533587 -2 8 C-2.66 8 -3.32 8 -4 8 C-4.33 7.01 -4.66 6.02 -5 5 C-3.35 3.35 -1.7 1.7 0 0 Z " fill="#EECE3A" transform="translate(479,706)"/>
<path d="M0 0 C0.66 0 1.32 0 2 0 C2.66 2.31 3.32 4.62 4 7 C3.34 6.67 2.68 6.34 2 6 C2 5.34 2 4.68 2 4 C1.34 4 0.68 4 0 4 C-0.33 4.99 -0.66 5.98 -1 7 C-1.33 6.34 -1.66 5.68 -2 5 C-1.0625 2.375 -1.0625 2.375 0 0 Z " fill="#BBA53F" transform="translate(612,577)"/>
<path d="M0 0 C1.98 0.495 1.98 0.495 4 1 C3.67 2.32 3.34 3.64 3 5 C1.68 4.67 0.36 4.34 -1 4 C-0.67 2.68 -0.34 1.36 0 0 Z " fill="#E3DB84" transform="translate(673,545)"/>
<path d="M0 0 C2.64 1.98 5.28 3.96 8 6 C6.02 6.99 6.02 6.99 4 8 C0 2.25 0 2.25 0 0 Z " fill="#DFBA36" transform="translate(452,370)"/>
<path d="M0 0 C0.33 0.99 0.66 1.98 1 3 C1.66 3 2.32 3 3 3 C2.67 4.98 2.34 6.96 2 9 C1.34 9 0.68 9 0 9 C0 6.03 0 3.06 0 0 Z " fill="#FCC113" transform="translate(513,541)"/>
<path d="M0 0 C2 2 2 2 2.125 5.125 C2.08375 6.07375 2.0425 7.0225 2 8 C1.01 8 0.02 8 -1 8 C-1.125 2.25 -1.125 2.25 0 0 Z " fill="#E7C943" transform="translate(412,537)"/>
<path d="M0 0 C0.66 0.33 1.32 0.66 2 1 C1.67 3.97 1.34 6.94 1 10 C0.01 9.67 -0.98 9.34 -2 9 C-1.34 9 -0.68 9 0 9 C-0.185625 7.88625 -0.37125 6.7725 -0.5625 5.625 C-1 2 -1 2 0 0 Z " fill="#3A443F" transform="translate(490,390)"/>
<path d="M0 0 C2.5654594 2.5654594 2.54046087 4.47686668 3 8 C2.01 8 1.02 8 0 8 C-0.98120464 4.94736336 -0.98120464 3.05263664 0 0 Z " fill="#D2B240" transform="translate(512,308)"/>
<path d="M0 0 C0.99 0.33 1.98 0.66 3 1 C2.67 2.65 2.34 4.3 2 6 C0.35 5.67 -1.3 5.34 -3 5 C-2.34 3.68 -1.68 2.36 -1 1 C-1 1.66 -1 2.32 -1 3 C-0.34 3 0.32 3 1 3 C0.67 2.01 0.34 1.02 0 0 Z " fill="#010D31" transform="translate(677,766)"/>
<path d="M0 0 C0.66 0.33 1.32 0.66 2 1 C1.67 2.65 1.34 4.3 1 6 C0.01 5.67 -0.98 5.34 -2 5 C-1.125 1.125 -1.125 1.125 0 0 Z " fill="#E6DB8D" transform="translate(602,542)"/>
<path d="M0 0 C0.33 0.99 0.66 1.98 1 3 C-1.97 2.67 -4.94 2.34 -8 2 C-4.77208445 -0.1519437 -3.71599191 -0.20086443 0 0 Z " fill="#D4A931" transform="translate(404,434)"/>
<path d="M0 0 C1.32 0 2.64 0 4 0 C3.67 1.65 3.34 3.3 3 5 C2.01 4.67 1.02 4.34 0 4 C0 2.68 0 1.36 0 0 Z " fill="#CDCBB2" transform="translate(634,362)"/>
<path d="M0 0 C0.66 0.66 1.32 1.32 2 2 C-1.32307692 5.93846154 -1.32307692 5.93846154 -4.75 6.25 C-5.4925 6.1675 -6.235 6.085 -7 6 C-5.6100869 3.22017379 -3.81341647 3.12536659 -1 2 C-0.67 1.34 -0.34 0.68 0 0 Z " fill="#36373F" transform="translate(527,659)"/>
<path d="M0 0 C0.66 0 1.32 0 2 0 C2.33 0.99 2.66 1.98 3 3 C1.68 3.99 0.36 4.98 -1 6 C-1 2 -1 2 0 0 Z " fill="#1A2F42" transform="translate(477,384)"/>
<path d="M0 0 C0.99 0.66 1.98 1.32 3 2 C2.67 2.99 2.34 3.98 2 5 C0.68 4.67 -0.64 4.34 -2 4 C-1.34 2.68 -0.68 1.36 0 0 Z " fill="#CEC395" transform="translate(417,369)"/>
<path d="M0 0 C0.66 0 1.32 0 2 0 C2.33 2.64 2.66 5.28 3 8 C0.7522025 5.94766315 -0.0022242 4.99332739 -1 2 C-0.67 1.34 -0.34 0.68 0 0 Z " fill="#E2CE55" transform="translate(670,220)"/>
</svg>
